<svg
  xmlns="http://www.w3.org/2000/svg"
  width="24"
  height="24"
  viewBox="0 0 17.2 17.2"
  fill="currentColor"
>
  <path d="M8.6,0.8c-2.5,0-4.5,2.1-4.5,4.8c0,1.2,0.9,2.8,1.9,4s1.9,2.1,1.9,2.1c0.2,0.2,0.5,0.3,0.7,0.3s0.5-0.1,0.7-0.3
    c0,0,1-0.9,1.9-2.1c0.9-1.2,1.9-2.7,1.9-4C13.1,2.9,11.1,0.8,8.6,0.8z M8.6,1.9c0.1,0,0.3,0.1,0.3,0.3v0.3c1.4,0.1,2.5,1.2,2.6,2.6
    h0.3c0.4,0,0.4,0.5,0,0.5h-0.3c-0.1,1.4-1.2,2.5-2.6,2.6v0.3c0,0.2-0.1,0.3-0.3,0.3c-0.1,0-0.3-0.1-0.3-0.3V8.2
    C6.9,8.1,5.8,6.9,5.7,5.6H5.4C5.1,5.6,5.1,5,5.4,5h0.3c0.1-1.4,1.2-2.5,2.6-2.6V2.1C8.3,1.9,8.5,1.9,8.6,1.9z M8.3,2.9
    C7.2,3,6.4,3.9,6.2,5h0.2c0.4,0,0.4,0.5,0,0.5H6.2c0.1,1.1,1,2,2.1,2.1V7.4c0-0.2,0.1-0.3,0.3-0.3s0.3,0.1,0.3,0.3v0.2
    c1.1-0.1,2-1,2.1-2.1h-0.2c-0.4,0-0.4-0.5,0-0.5H11c-0.1-1.1-1-2-2.1-2.1v0.3c0,0.2-0.1,0.3-0.3,0.3c-0.1,0-0.3-0.1-0.3-0.3V2.9z
    M8.6,5c0.1,0,0.3,0.1,0.3,0.3c0,0.1-0.1,0.3-0.3,0.3c-0.1,0-0.3-0.1-0.3-0.3C8.3,5.1,8.5,5,8.6,5z M4.8,8.8
    c-1.4,0.5-2.4,1.1-3,1.9c-0.3,0.4-0.5,0.8-0.6,1.2h0.3c0.4,0,0.4,0.5,0,0.5H1.2c0,0.2,0.1,0.5,0.2,0.7C1.8,14,2.7,14.7,4,15.3
    c1.2,0.5,2.7,0.8,4.3,0.9v-0.3c0-0.2,0.1-0.3,0.3-0.3s0.3,0.1,0.3,0.3v0.3c1.6,0,3.1-0.3,4.3-0.9c1.3-0.5,2.2-1.3,2.6-2.2
    c0.1-0.2,0.2-0.5,0.2-0.7h-0.3c-0.4,0-0.4-0.5,0-0.5H16c-0.1-0.4-0.3-0.8-0.6-1.2c-0.6-0.7-1.6-1.4-3-1.9c-0.2,0.4-0.5,0.7-0.8,1.1
    c-0.1,0.1-0.1,0.2-0.2,0.2c1,0.2,1.8,0.5,2.3,1c0.3,0.2,0.5,0.5,0.6,0.8c0,0,0,0,0,0.1h0.3c0.4,0,0.4,0.5,0,0.5h-0.3
    c0,0.1-0.1,0.2-0.1,0.3c-0.3,0.6-1.1,1-2.1,1.3c-0.9,0.3-2.1,0.4-3.3,0.5v0.3c0,0.2-0.1,0.3-0.3,0.3c-0.1,0-0.3-0.1-0.3-0.3v-0.3
    c-1.2,0-2.4-0.2-3.3-0.5c-1-0.3-1.8-0.7-2.1-1.3c-0.1-0.1-0.1-0.2-0.1-0.3H2.5c-0.4,0-0.4-0.5,0-0.5h0.3c0,0,0,0,0-0.1
    c0.1-0.3,0.3-0.6,0.6-0.8c0.5-0.4,1.3-0.7,2.3-1C5.7,10,5.6,9.9,5.6,9.9C5.3,9.5,5,9.2,4.8,8.8z M6.1,10.5
    c-1.1,0.2-1.9,0.5-2.4,0.9c-0.2,0.2-0.3,0.3-0.4,0.5h0.2c0.4,0,0.4,0.5,0,0.5H3.4c0,0,0,0,0,0.1c0.2,0.4,0.9,0.8,1.8,1.1
    c0.9,0.3,2,0.4,3.1,0.4v-0.3c0-0.2,0.1-0.3,0.3-0.3c0.1,0,0.3,0.1,0.3,0.3V14c1.2,0,2.3-0.2,3.1-0.4c0.9-0.3,1.6-0.7,1.8-1.1
    c0,0,0,0,0-0.1h-0.2c-0.4,0-0.4-0.5,0-0.5h0.2c-0.1-0.1-0.2-0.3-0.4-0.5c-0.5-0.4-1.3-0.7-2.4-0.9c-0.7,0.8-1.3,1.4-1.4,1.4
    c-0.3,0.3-0.7,0.5-1.1,0.5S7.8,12.3,7.5,12C7.5,11.9,6.9,11.4,6.1,10.5z"/>
</svg>
