  <svg
    xmlns="http://www.w3.org/2000/svg"
    width="24"
    height="24"
    viewBox="0 0 46.6 53.2"
  >
    <g>
      <path d="M42.6,44.7c0,3.3-8.7,5.9-19.3,5.9S3.9,48,3.9,44.7c0-2.5,5.1-4.7,12.4-5.5c1.9,2.5,3.7,4.6,4.9,6.1c0.5,0.6,1.3,0.9,2,0.9c0.8,0,1.5-0.3,2-0.9c1.3-1.5,3.1-3.7,4.9-6.1C37.5,40,42.6,42.2,42.6,44.7z" />
      <path d="M23.3,8.5C17.6,8.5,13,13.1,13,18.7S17.6,29,23.3,29s10.2-4.6,10.2-10.2S28.9,8.5,23.3,8.5z M30,18.2l-6,1.2l-1.2,6c0,0.2-0.2,0.4-0.5,0.4c0,0,0,0,0,0c-0.2,0-0.4-0.1-0.5-0.3l-4.1-11.7c-0.1-0.2,0-0.4,0.1-0.5c0.1-0.1,0.3-0.2,0.5-0.1l11.7,4.1c0.2,0.1,0.3,0.3,0.3,0.5C30.4,18,30.3,18.2,30,18.2z" />
      <path d="M23.3,2.4c-9,0-16.4,7.3-16.4,16.4c0,7.5,11.3,21.4,15.1,25.9c0.7,0.8,1.9,0.8,2.5,0c3.8-4.5,15.1-18.4,15.1-25.9C39.6,9.7,32.3,2.4,23.3,2.4z M23.3,30c-6.2,0-11.2-5-11.2-11.2s5-11.2,11.2-11.2s11.2,5,11.2,11.2S29.5,30,23.3,30z" />
      <path d="M22.2,23.4l0.9-4.5c0-0.2,0.2-0.4,0.4-0.4l4.5-0.9l-9-3.2L22.2,23.4z" />
    </g>
  </svg>