<svg xmlns="http://www.w3.org/2000/svg" xmlns:xlink="http://www.w3.org/1999/xlink" width="500" zoomAndPan="magnify" viewBox="0 0 375 374.999991" height="500" preserveAspectRatio="xMidYMid meet" version="1.0"><defs><clipPath id="306eb0ec9e"><path d="M 25.875 26.125 L 349.125 26.125 L 349.125 348.625 L 25.875 348.625 Z M 25.875 26.125 " clip-rule="nonzero"/></clipPath></defs><g clip-path="url(#306eb0ec9e)"><path fill="#000000" d="M 208.585938 26.480469 C 208.183594 26.683594 207.523438 27.136719 207.171875 27.539062 C 206.816406 27.945312 203.308594 34.277344 199.367188 41.644531 C 195.429688 48.988281 191.84375 55.601562 191.386719 56.332031 C 190.050781 58.453125 190.152344 58.425781 183.105469 58.703125 L 176.867188 58.984375 L 175.527344 58.328125 C 174.191406 57.671875 174.039062 57.46875 165.023438 44.472656 C 159.972656 37.230469 155.601562 30.945312 155.273438 30.519531 C 154.542969 29.535156 153.253906 28.902344 151.941406 28.902344 C 150.855469 28.902344 122.292969 38.390625 121.308594 39.074219 C 119.84375 40.105469 119.539062 41.316406 119.816406 45.003906 C 120.425781 52.472656 121.613281 67.511719 121.863281 70.96875 L 122.167969 74.828125 L 121.433594 76.269531 C 120.726562 77.65625 120.476562 77.882812 115.523438 81.316406 C 112.671875 83.285156 109.945312 85.023438 109.464844 85.175781 C 107.394531 85.78125 107.140625 85.707031 90.878906 78.96875 C 74.183594 72.054688 74.664062 72.230469 72.695312 73.113281 C 71.734375 73.566406 52.972656 96.886719 52.59375 98.097656 C 52.390625 98.828125 52.390625 99.308594 52.59375 100.039062 C 52.792969 100.671875 56.429688 105.667969 62.746094 113.96875 C 71.28125 125.222656 72.617188 127.117188 72.871094 128.199219 C 73.226562 129.839844 73.226562 129.839844 69.941406 137.664062 C 67.039062 144.652344 66.382812 145.636719 64.410156 146.34375 C 63.832031 146.546875 56.230469 148.011719 47.464844 149.574219 C 30.796875 152.550781 30.722656 152.578125 29.613281 154.09375 C 28.296875 155.859375 25.039062 186.089844 26.101562 186.71875 C 26.253906 186.820312 33.5 189.496094 42.1875 192.675781 C 50.875 195.855469 58.351562 198.679688 58.78125 198.933594 C 60.445312 199.894531 60.824219 200.976562 62.339844 209.355469 C 63.125 213.621094 63.753906 217.632812 63.753906 218.3125 C 63.753906 219.097656 63.527344 219.953125 63.171875 220.609375 C 62.796875 221.34375 58.957031 225.078125 50.75 232.699219 C 44.207031 238.753906 38.652344 244.078125 38.375 244.480469 C 38.046875 245.011719 37.894531 245.667969 37.917969 246.527344 C 37.917969 247.6875 38.550781 248.972656 44.359375 260.253906 C 47.921875 267.09375 51.128906 273.023438 51.507812 273.425781 C 51.859375 273.804688 52.644531 274.257812 53.222656 274.410156 C 54.207031 274.6875 55.421875 274.460938 70.066406 271.15625 C 86.585938 267.421875 87.164062 267.34375 89.007812 268.203125 C 89.992188 268.683594 101.738281 280.796875 102.445312 282.058594 C 103.402344 283.824219 103.351562 284.328125 100.777344 294.371094 C 94.84375 317.511719 94.96875 317.007812 95.296875 318.09375 C 95.449219 318.648438 95.851562 319.378906 96.15625 319.730469 C 96.457031 320.085938 102.265625 323.492188 109.058594 327.300781 C 120.246094 333.585938 121.535156 334.242188 122.570312 334.242188 C 123.253906 334.242188 124.0625 334.039062 124.492188 333.789062 C 124.917969 333.511719 130.296875 328.1875 136.484375 321.902344 C 142.671875 315.617188 148.128906 310.269531 148.660156 310.015625 C 150.5 309.03125 151.007812 309.082031 160.25 311.152344 C 165.023438 312.210938 169.214844 313.246094 169.542969 313.472656 C 171.285156 314.609375 171.386719 314.835938 176.765625 330.988281 C 181.84375 346.203125 181.992188 346.605469 182.953125 347.464844 C 183.507812 347.96875 184.34375 348.425781 184.898438 348.523438 C 187.195312 348.953125 201.515625 348.046875 210.65625 346.882812 C 214.796875 346.355469 215.683594 345.925781 216.390625 344.03125 C 216.617188 343.425781 218.285156 335.90625 220.078125 327.328125 C 222.25 317.082031 223.535156 311.429688 223.839844 310.925781 C 224.824219 309.359375 225.554688 308.980469 233.257812 306.054688 C 241.566406 302.875 242.628906 302.648438 244.472656 303.632812 C 244.925781 303.882812 250.734375 308.453125 257.351562 313.800781 C 263.992188 319.152344 269.75 323.71875 270.179688 323.972656 C 270.734375 324.300781 271.316406 324.402344 272.277344 324.324219 C 273.5625 324.25 273.84375 324.046875 281.089844 318.570312 C 295.8125 307.441406 297.203125 306.359375 297.679688 305.675781 C 297.960938 305.324219 298.238281 304.464844 298.289062 303.785156 C 298.414062 302.671875 297.910156 301.210938 292.554688 287.179688 C 289.324219 278.699219 286.621094 271.382812 286.570312 270.902344 C 286.316406 269.160156 286.898438 268.078125 290.9375 262.523438 C 293.109375 259.574219 295.132812 256.871094 295.433594 256.570312 C 296.316406 255.585938 297.832031 254.929688 299.246094 254.953125 C 299.929688 254.953125 307.480469 255.710938 315.992188 256.644531 L 331.445312 258.3125 L 332.53125 257.832031 C 333.113281 257.554688 333.792969 257.125 334.046875 256.847656 C 334.402344 256.445312 343.238281 232.773438 344.703125 228.308594 C 345.261719 226.667969 344.90625 225.277344 343.617188 223.964844 C 343.113281 223.4375 336.851562 218.71875 329.703125 213.46875 C 316.875 204.054688 316.722656 203.929688 316.089844 202.542969 L 315.460938 201.15625 L 315.761719 195.730469 C 316.167969 188.636719 316.21875 188.308594 317.152344 186.949219 C 317.910156 185.863281 318.492188 185.535156 332.632812 178.441406 C 340.738281 174.378906 347.53125 170.898438 347.761719 170.722656 C 348.316406 170.242188 349.125 168.578125 349.125 167.894531 C 349.125 166.835938 342.582031 137.183594 342.179688 136.402344 C 341.953125 135.972656 341.371094 135.367188 340.839844 135.015625 C 339.78125 134.332031 340.867188 134.410156 315.257812 132.769531 C 305.433594 132.136719 305.257812 132.085938 303.769531 130.675781 C 302.683594 129.640625 298.136719 121.085938 297.960938 119.722656 C 297.859375 119.039062 297.960938 118.207031 298.160156 117.601562 C 298.363281 117.046875 302.253906 110.308594 306.796875 102.636719 C 314.726562 89.316406 315.082031 88.660156 315.082031 87.445312 C 315.054688 86.765625 314.90625 85.933594 314.726562 85.578125 C 314.398438 84.949219 293.261719 63.273438 292.050781 62.339844 C 291.671875 62.035156 290.914062 61.808594 290.03125 61.757812 L 288.589844 61.65625 L 274.347656 69.554688 C 266.519531 73.894531 259.648438 77.605469 259.09375 77.808594 C 257.351562 78.414062 256.214844 78.035156 251.515625 75.410156 C 246.769531 72.761719 246.265625 72.382812 245.53125 70.945312 C 244.875 69.683594 244.902344 70.011719 244.292969 51.992188 C 243.789062 37.105469 243.765625 36.574219 243.207031 35.464844 C 242.273438 33.570312 244.117188 34.125 218.359375 27.996094 C 214.015625 26.984375 210.203125 26.125 209.898438 26.125 C 209.597656 26.152344 209.015625 26.304688 208.585938 26.480469 Z M 198.863281 93.351562 C 205.808594 94.261719 211.566406 95.546875 217.550781 97.539062 C 249.34375 108.039062 273.691406 135.394531 280.28125 167.996094 C 281.722656 175.136719 282.050781 178.570312 282.050781 186.871094 C 282.074219 194.695312 281.949219 196.613281 280.914062 202.894531 C 276.0625 232.394531 256.796875 258.335938 229.800781 271.660156 C 219.570312 276.707031 210.730469 279.355469 198.359375 281.046875 C 194.492188 281.578125 180.402344 281.476562 176.132812 280.921875 C 154.0625 277.917969 134.820312 268.328125 119.816406 252.835938 C 98.378906 230.679688 89.210938 200.144531 94.816406 169.5625 C 98.503906 149.449219 109.4375 130.246094 125.019531 116.492188 C 140.398438 102.941406 159.164062 94.890625 179.796875 93.023438 C 183.609375 92.671875 195.152344 92.871094 198.863281 93.351562 Z M 198.863281 93.351562 " fill-opacity="1" fill-rule="nonzero"/></g></svg>