<svg version="1.1" id="Layer_1" xmlns="http://www.w3.org/2000/svg" xmlns:xlink="http://www.w3.org/1999/xlink" x="0px" y="0px"
	 viewBox="0 0 254.9 95.3" style="enable-background:new 0 0 254.9 95.3;" xml:space="preserve">
<style type="text/css">
	.st0{fill:#B;}
	.st1{fill:#BAC950;}
</style>
<path class="st0" d="M106.9,39.7h-6.1l-0.8,2.6h-4.1l5.6-16.5h4.8l5.6,16.5h-4.1L106.9,39.7z M105.8,36.2l-1.9-6.1l-1.9,6.1H105.8z"
	/>
<g>
	<path class="st0" d="M124.9,30.5v11.2c0,4-3.1,5.6-6.2,5.6c-2.4,0-4.5-0.9-5.6-2.8l3-1.7c0.4,0.8,1.1,1.5,2.7,1.5s2.7-0.8,2.7-2.5
		v-1.1c-0.8,1-1.9,1.5-3.4,1.5c-3.3,0-5.8-2.7-5.8-6c0-3.2,2.4-6,5.8-6c1.5,0,2.7,0.6,3.4,1.5v-1.2H124.9z M121.5,36.2
		c0-1.6-1.2-2.7-2.8-2.7c-1.7,0-2.8,1.1-2.8,2.7c0,1.6,1.2,2.7,2.8,2.7S121.5,37.8,121.5,36.2"/>
	<path class="st0" d="M132,33.9v4.2c0,1,0.9,1.1,2.4,1v3.2c-4.6,0.5-6-0.9-6-4.2v-4.2h-1.9v-3.4h1.9v-2.2l3.5-1.1v3.3h2.4v3.4H132z"
		/>
	<path class="st0" d="M142.1,39.5c1,0,1.8-0.4,2.3-0.9l2.8,1.6c-1.2,1.6-2.9,2.4-5.1,2.4c-4,0-6.5-2.7-6.5-6.2s2.5-6.2,6.3-6.2
		c3.4,0,6,2.7,6,6.2c0,0.5,0,1-0.1,1.4h-8.4C139.8,39.1,140.8,39.5,142.1,39.5 M144.3,35.2c-0.4-1.4-1.4-1.9-2.5-1.9
		c-1.3,0-2.2,0.7-2.6,1.9H144.3z"/>
	<path class="st0" d="M149.1,36.4c0-3.5,2.7-6.2,6.2-6.2c2.3,0,4.3,1.2,5.3,3l-3.1,1.8c-0.4-0.8-1.2-1.3-2.3-1.3
		c-1.5,0-2.7,1.1-2.7,2.7c0,1.6,1.1,2.7,2.7,2.7c1,0,1.9-0.5,2.3-1.3l3.1,1.8c-1,1.8-3,3-5.3,3C151.8,42.6,149.1,39.9,149.1,36.4"/>
	<path class="st0" d="M173.4,35.1v7.2h-3.5v-6.7c0-1.5-0.9-2.1-2-2.1c-1.3,0-2.2,0.8-2.2,2.4v6.4h-3.5V25.8h3.5v5.8
		c0.6-0.9,1.8-1.4,3.4-1.4C171.4,30.2,173.4,31.9,173.4,35.1"/>
	<path class="st0" d="M193.8,30.5v11.8h-3.5v-1.1c-0.8,0.9-1.9,1.4-3.5,1.4c-3.1,0-5.6-2.7-5.6-6.2s2.5-6.2,5.6-6.2
		c1.6,0,2.7,0.5,3.5,1.4v-1.1H193.8z M190.3,36.4c0-1.8-1.2-2.9-2.8-2.9s-2.8,1.1-2.8,2.9s1.2,2.9,2.8,2.9S190.3,38.2,190.3,36.4"/>
	<path class="st0" d="M207.7,35.1v7.2h-3.5v-6.7c0-1.5-0.9-2.1-2-2.1c-1.3,0-2.2,0.8-2.2,2.4v6.4h-3.5V30.5h3.5v1.1
		c0.6-0.9,1.8-1.4,3.4-1.4C205.7,30.2,207.7,31.9,207.7,35.1"/>
	<path class="st0" d="M222.2,25.8v16.5h-3.5v-1.1c-0.8,0.9-1.9,1.4-3.5,1.4c-3.1,0-5.6-2.7-5.6-6.2s2.5-6.2,5.6-6.2
		c1.6,0,2.7,0.5,3.5,1.4v-5.8H222.2z M218.7,36.4c0-1.8-1.2-2.9-2.8-2.9s-2.8,1.1-2.8,2.9c0,1.8,1.2,2.9,2.8,2.9
		C217.5,39.3,218.7,38.2,218.7,36.4"/>
</g>
<polygon class="st0" points="106.9,62.4 106.9,66 97.3,66 97.3,49.6 101,49.6 101,62.4 "/>
<g>
	<path class="st0" d="M107.7,60.2c0-3.5,2.8-6.2,6.2-6.2c3.5,0,6.2,2.7,6.2,6.2s-2.8,6.2-6.2,6.2C110.5,66.4,107.7,63.7,107.7,60.2
		 M116.7,60.2c0-1.7-1.2-2.8-2.7-2.8s-2.7,1.1-2.7,2.8s1.2,2.8,2.7,2.8C115.5,62.9,116.7,61.8,116.7,60.2"/>
	<path class="st0" d="M134.3,54.3v11.2c0,4-3.1,5.6-6.2,5.6c-2.5,0-4.5-0.9-5.6-2.9l3-1.7c0.4,0.8,1.1,1.5,2.7,1.5
		c1.6,0,2.7-0.8,2.7-2.5v-1.1c-0.8,1-1.9,1.5-3.4,1.5c-3.3,0-5.8-2.7-5.8-6c0-3.2,2.4-6,5.8-6c1.5,0,2.7,0.6,3.4,1.5v-1.2
		L134.3,54.3L134.3,54.3z M130.9,59.9c0-1.6-1.2-2.7-2.9-2.7s-2.8,1.1-2.8,2.7c0,1.6,1.2,2.7,2.8,2.7
		C129.7,62.6,130.9,61.5,130.9,59.9"/>
	<path class="st0" d="M136.6,51.1c0-1.2,1-2.1,2.1-2.1c1.2,0,2.1,1,2.1,2.1c0,1.2-1,2.1-2.1,2.1C137.5,53.2,136.6,52.3,136.6,51.1
		 M136.9,54.3h3.5v11.8h-3.5V54.3z"/>
	<path class="st0" d="M152.1,62.5c0,2.7-2.4,3.9-4.9,3.9c-2.4,0-4.1-0.9-5.1-2.8l3.1-1.7c0.3,0.9,1,1.4,2,1.4c0.8,0,1.3-0.3,1.3-0.7
		c0-1.3-5.8-0.6-5.8-4.7c0-2.6,2.2-3.9,4.6-3.9c1.9,0,3.6,0.8,4.6,2.5l-3,1.6c-0.3-0.6-0.8-1-1.6-1c-0.6,0-1,0.2-1,0.7
		C146.3,59,152.1,58.1,152.1,62.5"/>
	<path class="st0" d="M157.9,57.7v4.2c0,1,0.9,1.1,2.4,1v3.2c-4.6,0.5-6-0.9-6-4.2v-4.2h-1.9v-3.4h1.9v-2.2l3.5-1.1v3.3h2.4v3.4
		C160.2,57.7,157.9,57.7,157.9,57.7z"/>
	<path class="st0" d="M162,51.1c0-1.2,1-2.1,2.1-2.1c1.2,0,2.1,1,2.1,2.1c0,1.2-1,2.1-2.1,2.1C163,53.2,162,52.3,162,51.1
		 M162.4,54.3h3.5v11.8h-3.5V54.3z"/>
	<path class="st0" d="M167.9,60.2c0-3.5,2.7-6.2,6.2-6.2c2.3,0,4.3,1.2,5.3,3l-3.1,1.8c-0.4-0.8-1.2-1.3-2.3-1.3
		c-1.5,0-2.7,1.1-2.7,2.7c0,1.6,1.1,2.7,2.7,2.7c1,0,1.9-0.5,2.3-1.3l3.1,1.8c-1,1.8-3,3-5.3,3C170.6,66.4,167.9,63.7,167.9,60.2"/>
	<path class="st0" d="M190,62.5c0,2.7-2.4,3.9-4.9,3.9c-2.4,0-4.1-0.9-5.1-2.8l3.1-1.7c0.3,0.9,1,1.4,2,1.4c0.8,0,1.3-0.3,1.3-0.7
		c0-1.3-5.8-0.6-5.8-4.7c0-2.6,2.2-3.9,4.6-3.9c1.9,0,3.6,0.8,4.6,2.5l-3,1.6c-0.3-0.6-0.8-1-1.6-1c-0.6,0-1,0.2-1,0.7
		C184.2,59,190,58.1,190,62.5"/>
</g>
<polygon class="st1" points="208.8,49.6 208.8,66 207.5,66 207.5,58.2 197.9,58.2 197.9,66 196.7,66 196.7,49.6 197.9,49.6 
	197.9,57 207.5,57 207.5,49.6 "/>
<g>
	<path class="st1" d="M222.3,54.3v11.8h-1.2v-2.2c-0.9,1.7-2.4,2.5-4.2,2.5c-2.8,0-4.6-1.9-4.6-4.7v-7.3h1.2v7.3
		c0,2.2,1.2,3.6,3.5,3.6s4.1-1.5,4.1-4.7v-6.2L222.3,54.3L222.3,54.3z"/>
	<path class="st1" d="M238.3,60.2c0,3.5-2.7,6.1-6.1,6.1c-2.3,0-4.1-1.2-5.1-3V66h-1.2V49.6h1.2V57c1-1.8,2.8-3,5.1-3
		C235.5,54,238.3,56.7,238.3,60.2 M237.1,60.2c0-2.8-2.2-5-5-5s-5,2.2-5,5s2.2,5,5,5S237.1,63,237.1,60.2"/>
</g>
<rect x="20.2" y="41.1" transform="matrix(0.7071 -0.7071 0.7071 0.7071 -28.0008 28.925)" class="st1" width="1.5" height="14.4"/>
<rect x="60.5" y="57.2" transform="matrix(0.8868 -0.4621 0.4621 0.8868 -19.1362 37.8563)" class="st1" width="14.4" height="1.5"/>
<rect x="39.9" y="71.7" transform="matrix(0.7618 -0.6478 0.6478 0.7618 -35.7782 47.668)" class="st1" width="14.1" height="1.5"/>
<rect x="54.4" y="51.3" transform="matrix(0.3162 -0.9487 0.9487 0.3162 -8.855 91.8671)" class="st1" width="9.8" height="1.5"/>
<rect x="50" y="27.9" transform="matrix(0.3085 -0.9512 0.9512 0.3085 1.7981 72.4272)" class="st1" width="1.5" height="14.1"/>
<rect x="34.6" y="50.1" transform="matrix(0.8731 -0.4875 0.4875 0.8731 -19.7215 25.999)" class="st1" width="10.9" height="1.5"/>
<rect x="26.6" y="42.2" transform="matrix(0.3681 -0.9298 0.9298 0.3681 -19.0893 57.8254)" class="st1" width="12.8" height="1.5"/>
<rect x="42.4" y="22.3" transform="matrix(0.8999 -0.4362 0.4362 0.8999 -5.1281 23.7735)" class="st1" width="13.6" height="1.5"/>
<g>
	<path class="st1" d="M61.9,57.6c3.6,3.6,3.6,9.5,0,13.1s-9.5,3.6-13.1,0s-3.6-9.5,0-13.1C52.5,54,58.3,54,61.9,57.6"/>
	<path class="st1" d="M35.4,49.3c3.6,3.6,3.6,9.5,0,13.1c-3.6,3.6-9.5,3.6-13.1,0c-3.6-3.6-3.6-9.5,0-13.1S31.8,45.6,35.4,49.3"/>
	<path class="st1" d="M18.7,39.6c1.8,1.8,1.8,4.7,0,6.5s-4.7,1.8-6.5,0s-1.8-4.7,0-6.5C14,37.9,16.9,37.9,18.7,39.6"/>
	<path class="st1" d="M49.7,44c1.8,1.8,1.8,4.7,0,6.5s-4.7,1.8-6.5,0s-1.8-4.7,0-6.5C45.1,42.2,48,42.2,49.7,44"/>
	<path class="st1" d="M58.2,17.4c1.8,1.8,1.8,4.7,0,6.5c-1.8,1.8-4.7,1.8-6.5,0s-1.8-4.7,0-6.5C53.5,15.6,56.4,15.6,58.2,17.4"/>
	<path class="st1" d="M77.1,51.9c1.8,1.8,1.8,4.7,0,6.5s-4.7,1.8-6.5,0s-1.8-4.7,0-6.5C72.4,50.1,75.3,50.1,77.1,51.9"/>
	<path class="st1" d="M43.8,74.3c1.8,1.8,1.8,4.7,0,6.5s-4.7,1.8-6.5,0s-1.8-4.7,0-6.5S42,72.5,43.8,74.3"/>
	<path class="st1" d="M79.8,26.1c0,0-4.8,0.6-10.1,2.3c-3.9,1.3-8.1,3.1-10.7,5.7c-3.3,3.3-3.8,8.3-0.8,11.9l15.9-14.5l0,0
		c0.1-0.1,0.2-0.1,0.3,0c0.1,0.1,0.1,0.2,0,0.3l0,0L60,47.6c3.5,3,8.5,2.5,11.9-0.8c2.6-2.6,4.5-7.1,5.8-11.3
		C79.2,30.5,79.8,26.1,79.8,26.1"/>
	<path class="st1" d="M26.7,14.8c0,0-0.4,4.3,0.1,9.1c0.3,3.6,1.1,7.6,2.9,10.3c2.2,3.5,6.5,4.8,10.1,3l-9.5-16.4
		c-0.1-0.1,0-0.2,0.1-0.3c0.1-0.1,0.2,0,0.2,0.1l0,0L41.5,36c3.2-2.5,3.8-6.9,1.5-10.4c-1.8-2.8-5.3-5.2-8.6-7.1
		C30.4,16.3,26.7,14.8,26.7,14.8"/>
</g>
</svg>
