<svg width="352" height="100" viewBox="0 0 352 100" fill="none" xmlns="http://www.w3.org/2000/svg">
<path d="M136.453 9.30371H122.921V43.1069H136.453C147.223 43.1069 154.737 36.1151 154.737 26.1066C154.737 16.211 147.223 9.30371 136.453 9.30371ZM136.453 36.2843H130.603V16.1123H136.453C142.318 16.1123 146.899 20.4963 146.899 26.1066C146.899 31.9003 142.416 36.2843 136.453 36.2843Z" fill="#000000"/>
<path d="M185.48 37.116L187.834 43.0929H195.939L181.617 9.09229H174.02L159.655 43.0929H167.803L170.101 37.116H185.48ZM177.797 17.3669L182.999 30.7162H172.596L177.797 17.3669Z" fill="#000000"/>
<path d="M227.263 9.30371H197.449V16.0559H208.543V43.0928H216.212V16.0559H227.263V9.30371Z" fill="#000000"/>
<path d="M254.539 37.116L256.894 43.0929H264.999L250.677 9.09229H243.079L228.715 43.0929H236.863L239.16 37.116H254.539ZM246.857 17.3669L252.059 30.7162H241.655L246.857 17.3669Z" fill="#000000"/>
<path d="M123.442 91.7673H127.756V78.1501H144.347V74.0763H127.756V62.7005H146.335V58.6548H123.442V91.7673Z" fill="#000000"/>
<path d="M162.278 58.4297L147.237 91.7818H151.889L156.048 82.4218H172.301L176.459 91.7818H181.097L166.056 58.4297H162.278ZM170.496 78.3761H157.838L164.153 64.1105L170.496 78.3761Z" fill="#000000"/>
<path d="M213.829 69.3963C213.829 62.9683 208.712 58.6548 201.099 58.6548H188.652V91.7673H192.966V80.0813H200.254L210.319 91.7673H215.802L205.328 79.6162C210.615 78.3193 213.829 74.4569 213.829 69.3963ZM192.98 62.7005H201.015C206.174 62.7005 209.515 65.3365 209.515 69.4104C209.515 73.456 206.174 76.0639 201.015 76.0639H192.98V62.7005Z" fill="#000000"/>
<path d="M238.934 79.9545L226.388 58.8944L226.248 58.6548H222.893V91.7673H227.206L227.122 68.1135L237.525 85.438H240.33L250.634 68.2544L250.592 91.7673H254.92V58.6548H251.607L238.934 79.9545Z" fill="#000000"/>
<path d="M270.171 58.6694H265.857V91.7819H270.171V58.6694Z" fill="#000000"/>
<path d="M304.962 84.1552L284.579 58.6548H281.083V91.7673H285.397V66.5488L305.54 91.5981L305.681 91.7673H309.276V58.6548H304.962V84.1552Z" fill="#000000"/>
<path d="M351.973 73.978H335.114V78.0096H347.335C346.278 84.3107 341.937 88.2013 335.889 88.2013C328.77 88.2013 323.174 82.5768 323.174 75.4018C323.174 67.8602 328.756 62.1652 336.171 62.1652C341.514 62.1652 345.869 65.1819 347.293 69.8619L347.392 70.2002H351.959L351.818 69.6081C350.098 62.6586 343.797 57.9927 336.129 57.9927C326.416 57.9927 318.818 65.6329 318.818 75.4018C318.818 84.945 326.318 92.4302 335.889 92.4302C341.105 92.4302 345.334 90.203 347.956 86.1291L348.195 91.7677H351.874V75.2185L351.86 75.0211L351.973 73.978Z" fill="#000000"/>
<path d="M0 43.1206V54.8629L41.7536 79.137V67.3946L0 43.1206Z" fill="#F7901E"/>
<path d="M41.7676 58.2746V0L31.6182 5.8923V52.3682L41.7676 58.2746Z" fill="#007BB6"/>
<path d="M25.8252 49.0131V9.26123L15.6758 15.1676V43.1067L25.8252 49.0131Z" fill="#3CA5D5"/>
<path d="M10.1494 39.893V18.3818L0 24.2741V34.0007L10.1494 39.893Z" fill="#9AC6EA"/>
<path d="M0 63.9839V75.7262L41.7536 100V88.2579L0 63.9839Z" fill="#FDB913"/>
<path d="M91.3591 56.8787V45.1363L49.6055 20.8623V32.6046L91.3591 56.8787Z" fill="#009ADA"/>
<path d="M49.5908 41.7256V100L59.7402 94.0938V47.6179L49.5908 41.7256Z" fill="#82C341"/>
<path d="M65.5342 50.9868V90.7387L75.6836 84.8323V56.8932L65.5342 50.9868Z" fill="#00B156"/>
<path d="M81.21 60.1074V81.6186L91.3594 75.7263V65.9997L81.21 60.1074Z" fill="#2D903C"/>
<path d="M91.3591 36.0163V24.274L49.6055 0V11.7423L91.3591 36.0163Z" fill="#7EBADF"/>
</svg>
