<?xml version="1.0" encoding="UTF-8" standalone="no"?>
<svg xmlns="http://www.w3.org/2000/svg" version="1.1" width="527" height="289" viewbox="0 0 527 289">
<title>undefined</title><path d="M263.5,0 L0,0 L0,144.5 L0,289 L263.5,289 L527,289 L527,144.5 L527,0 L263.5,0 " fill="rgb(241, 177, 193)" stroke="none" fill-rule="evenodd"></path><path d="M263.5,0 L0,0 L0,144.5 L0,289 L263.5,289 L527,289 L527,144.5 L527,0 L263.5,0 " fill="rgb(255, 255, 255)" stroke="none" fill-rule="evenodd"></path><path d="M395,31 C364.75,31,337.975,31.225,335.5,31.5 C333.025,31.775,329.65,32.675,328,33.5 C326.258,34.371,335.274,35.21,349.5,35.5 C362.975,35.775,396.95,36,425,36 C453.05,36,477.8,36.45,480,37 C483.124,37.781,483.672,37.562,482.5,36 C481.675,34.9,478.3,33.55,475,33 C471.7,32.45,466.75,32,464,32 C461.25,32,456.975,31.775,454.5,31.5 C452.025,31.225,425.25,31,395,31 M268.5,34 C268.225,34,266.2,35.8,264,38 C261.8,40.2,259.1,42.45,258,43 C256.791,43.605,256.198,47.559,256.5,53 C256.775,57.95,256.775,64.025,256.5,66.5 C256.225,68.975,256,73.7,256,77 C256,80.3,255.775,83.225,255.5,83.5 C255.225,83.775,255.225,84.225,255.5,84.5 C255.775,84.775,254.2,85.225,252,85.5 C249.8,85.775,246.875,87.575,245.5,89.5 L243,93 L243.5,89 C243.775,86.8,244.9,83.875,246,82.5 C247.1,81.125,248,77.525,248,74.5 C248,71.475,247.1,68.1,246,67 C244.541,65.541,243.324,65.676,241.5,67.5 C240.125,68.875,237.875,70.675,236.5,71.5 C235.125,72.325,233.55,74.125,233,75.5 C232.45,76.875,232.225,79.35,232.5,81 C232.775,82.65,233.45,84.675,234,85.5 C234.55,86.325,235,90.6,235,95 C235,99.4,234.55,105.7,234,109 L233,115 L227,115.5 C223.7,115.775,218.975,115.775,216.5,115.5 C214.025,115.225,208.625,115,204.5,115 C200.375,115,194.975,114.775,192.5,114.5 C190.025,114.225,185.525,113.775,182.5,113.5 C179.475,113.225,176.775,112.325,176.5,111.5 C176.225,110.675,177.575,109.55,179.5,109 C181.425,108.45,186.6,108,191,108 L199,108 L203,103 C205.582,99.772,207.354,95.164,208,90 C208.55,85.6,209,74.8,209,66 C209,57.2,208.325,49.55,207.5,49 C206.675,48.45,193.85,48,179,48 C164.15,48,149.975,48.225,147.5,48.5 C145.025,48.775,141.875,49.45,140.5,50 C139.125,50.55,137.55,53.25,137,56 C136.45,58.75,136,67.975,136,76.5 C136,85.025,135.775,92.45,135.5,93 C135.225,93.55,135.675,95.35,136.5,97 L138,100 L127.5,100.5 C119.731,100.87,116.35,101.78,114.5,104 C112.73,106.124,110.832,106.708,108,106 C105.8,105.45,101.75,104.325,99,103.5 C96.25,102.675,89.725,100.875,84.5,99.5 L75,97 L73.5,101.5 C72.675,103.975,72.225,109.825,72.5,114.5 C72.775,119.175,72.775,125.025,72.5,127.5 C72.225,129.975,72,142.125,72,154.5 C72,166.875,72.225,178.8,72.5,181 C72.775,183.2,72.775,187.025,72.5,189.5 C72.225,191.975,72.9,195.35,74,197 L76,200 L87.5,197.5 C93.825,196.125,101.475,194.325,104.5,193.5 C107.525,192.675,111.125,192.225,112.5,192.5 C113.875,192.775,115.45,193.9,116,195 C116.565,196.13,120.48,197,125,197 C129.4,197,133.9,197.45,135,198 C136.259,198.629,136.815,204.372,136.5,213.5 C136.225,221.475,136,231.15,136,235 C136,238.85,136.675,243.35,137.5,245 C138.668,247.336,141.102,248.111,148.5,248.5 C153.725,248.775,164.975,249,173.5,249 C182.025,249,191.025,249.225,193.5,249.5 C195.975,249.775,200.25,250,203,250 L208,250 L208.5,235.5 C208.775,227.525,209,218.075,209,214.5 C209,210.925,208.55,205.75,208,203 C207.45,200.25,205.425,196.425,203.5,194.5 C200.848,191.848,197.697,190.879,190.5,190.5 C185.275,190.225,180.1,189.775,179,189.5 C177.9,189.225,176.775,188.325,176.5,187.5 C176.225,186.675,177.575,185.55,179.5,185 C181.425,184.45,185.25,184,188,184 C190.75,184,195.025,183.775,197.5,183.5 C199.975,183.225,205.15,183,209,183 C212.85,183,218.025,182.775,220.5,182.5 C222.975,182.225,227.025,182.225,229.5,182.5 C232.944,182.883,234.469,184.056,236,187.5 C237.1,189.975,240.025,196.275,242.5,201.5 C245.42,207.665,248.229,211.527,250.5,212.5 C252.425,213.325,254.45,214.225,255,214.5 C255.55,214.775,256,219.725,256,225.5 C256,231.275,256.225,238.025,256.5,240.5 C256.775,242.975,256.775,247.25,256.5,250 L256,255 L259.5,256 C261.425,256.55,263.9,258.575,265,260.5 C266.1,262.425,267.45,263.775,268,263.5 C268.55,263.225,267.65,256.925,266,249.5 C264.35,242.075,262.55,234.875,262,233.5 C261.45,232.125,261,227.85,261,224 C261,220.15,260.55,216.55,260,216 C259.45,215.45,263.05,215.225,268,215.5 C272.95,215.775,279.925,214.875,283.5,213.5 C287.075,212.125,292.25,211.225,295,211.5 L300,212 L298.5,217 C297.675,219.75,297,226.275,297,231.5 C297,236.725,297.45,242.8,298,245 C298.55,247.2,299.675,249.9,300.5,251 C301.325,252.1,303.575,254.125,305.5,255.5 C307.425,256.875,313.275,258.225,318.5,258.5 C323.725,258.775,330.025,258.775,332.5,258.5 C334.975,258.225,368.275,258,406.5,258 C459.144,258,477.334,257.394,481.5,255.5 C484.525,254.125,487.9,251.65,489,250 C490.1,248.35,491.45,245.2,492,243 C492.55,240.8,493,235.85,493,232 C493,228.15,492.55,223.2,492,221 C491.45,218.8,489.425,215.65,487.5,214 C485.575,212.35,481.3,210.55,478,210 C474.7,209.45,469.975,208.775,467.5,208.5 C465.025,208.225,461.425,207.325,459.5,206.5 C457.575,205.675,453.3,203.875,450,202.5 C446.7,201.125,440.625,199.325,436.5,198.5 C432.375,197.675,426.3,196.55,423,196 C418.794,195.299,417.748,194.701,419.5,194 C420.875,193.45,425.15,192.775,429,192.5 C432.85,192.225,436.9,191.55,438,191 C439.111,190.445,440.222,185.777,440.5,180.5 C440.775,175.275,441,157.05,441,140 L441,109 L437,107 C434.8,105.9,429.85,104.325,426,103.5 L419,102 L426.5,101.5 C430.625,101.225,437.825,99.875,442.5,98.5 C447.175,97.125,451.675,95.55,452.5,95 C453.325,94.45,456.925,92.875,460.5,91.5 C464.075,90.125,469.25,89,472,89 C474.75,89,479.25,88.1,482,87 C484.886,85.846,488.057,83.097,489.5,80.5 C490.875,78.025,492.225,71.275,492.5,65.5 C492.775,59.725,492.1,52.975,491,50.5 C489.842,47.894,486.895,44.948,484,43.5 C481.25,42.125,477.2,40.55,475,40 C472.8,39.45,437.025,39,395.5,39 C353.975,39,318.425,38.775,316.5,38.5 C314.575,38.225,311.425,38.675,309.5,39.5 C307.575,40.325,304.65,42.35,303,44 C301.35,45.65,299.55,48.575,299,50.5 C298.45,52.425,297.775,59.175,297.5,65.5 C297.225,71.825,297.225,77.45,297.5,78 C297.775,78.55,297.775,79.225,297.5,79.5 C297.225,79.775,297.45,80.675,298,81.5 C298.55,82.325,298.775,83.225,298.5,83.5 C298.225,83.775,298.225,84.225,298.5,84.5 C298.775,84.775,296.525,85.45,293.5,86 C290.475,86.55,285.75,86.1,283,85 C280.25,83.9,273.95,82.775,269,82.5 L260,82 L260.5,73 C260.775,68.05,261.675,62.425,262.5,60.5 C263.325,58.575,265.125,51.825,266.5,45.5 C267.875,39.175,268.775,34,268.5,34 M114.5,37 C96.625,37,79.3,37.675,76,38.5 C72.573,39.357,68.928,41.501,67.5,43.5 C66.125,45.425,64.325,50.15,63.5,54 C62.675,57.85,61.775,65.05,61.5,70 C61.225,74.95,61.9,82.15,63,86 C64.1,89.85,66.125,93.675,67.5,94.5 C68.875,95.325,71.125,95.325,72.5,94.5 C73.875,93.675,75.675,92.775,76.5,92.5 C77.325,92.225,81.825,93.125,86.5,94.5 C91.175,95.875,102.425,97,111.5,97 C120.575,97,128.675,96.55,129.5,96 C130.325,95.45,131,86.45,131,76 C131,65.55,131.45,55.2,132,53 C132.55,50.8,134.35,47.875,136,46.5 C138.229,44.642,146.452,44,168,44 C188.285,44,196.549,43.399,195.5,42 C194.675,40.9,192.2,39.55,190,39 C187.8,38.45,177.225,37.775,166.5,37.5 C155.775,37.225,132.375,37,114.5,37 M443.5,61 C450.925,61,458.125,61.675,459.5,62.5 C461.122,63.473,461.824,65.755,461.5,69 C461.225,71.75,460.55,75.125,460,76.5 C459.25,78.375,455.749,79,446,79 C438.85,79,431.875,78.55,430.5,78 C428.788,77.315,428,74.95,428,70.5 C428,66.925,428.45,63.325,429,62.5 C429.55,61.675,436.075,61,443.5,61 M262,88 C263.1,88,266.7,88.45,270,89 L276,90 L267.5,92 L259,94 L259.5,91 C259.775,89.35,260.9,88,262,88 M252,94.5 C252.55,95.875,252.775,98.125,252.5,99.5 C252.225,100.875,250.65,103.8,249,106 C247.35,108.2,246.225,111.125,246.5,112.5 C246.775,113.875,246.775,116.125,246.5,117.5 C246.225,118.875,245.1,120.225,244,120.5 C242.9,120.775,241.55,120.325,241,119.5 C240.45,118.675,240.675,115.525,241.5,112.5 C242.325,109.475,244.8,103.625,247,99.5 C250.178,93.541,251.205,92.514,252,94.5 M182.5,100.5 C192.125,100.775,199.55,101.675,199,102.5 C198.45,103.325,194.175,104,189.5,104 C184.825,104,179.2,104.45,177,105 C174.771,105.557,172.557,107.328,172,109 C171.291,111.128,169.983,111.855,167.5,111.5 C165.575,111.225,162.2,110.325,160,109.5 C157.684,108.631,155.79,106.737,155.5,105 L155,102 L160,101 C162.75,100.45,172.875,100.225,182.5,100.5 M408,125.5 C408.55,126.325,409.225,131.275,409.5,136.5 C409.775,141.725,409.775,148.025,409.5,150.5 C409.225,152.975,408.775,159.05,408.5,164 C408.225,168.95,407.55,172.775,407,172.5 C406.45,172.225,405.775,169.975,405.5,167.5 C405.225,165.025,405,158.5,405,153 C405,147.5,405.45,138.725,406,133.5 C406.55,128.275,407.45,124.675,408,125.5 M258,145 C259.65,145,261.225,145.9,261.5,147 C261.775,148.1,261.325,149.9,260.5,151 C259.612,152.184,257.98,152.388,256.5,151.5 C255.125,150.675,254.225,148.875,254.5,147.5 C254.784,146.078,256.294,145,258,145 M244,178.5 C246.319,178.887,246.887,179.908,246.5,183 C246.225,185.2,246.9,188.125,248,189.5 C249.1,190.875,250.675,193.125,251.5,194.5 C252.325,195.875,252.775,199.025,252.5,201.5 C252.225,203.975,251.55,205.55,251,205 C250.45,204.45,249.1,202.425,248,200.5 C246.9,198.575,244.65,193.4,243,189 C241.35,184.6,240.225,180.325,240.5,179.5 C240.775,178.675,242.35,178.225,244,178.5 M171,186.5 C171.55,187.325,173.125,189.35,174.5,191 C176.366,193.239,179.282,194,186,194 C190.95,194,196.125,194.45,197.5,195 C199.5,195.8,199.5,196.2,197.5,197 C196.125,197.55,191.175,198,186.5,198 C181.825,198,175.975,197.775,173.5,197.5 C171.025,197.225,166.3,197,163,197 C159.7,197,156.55,196.325,156,195.5 C155.45,194.675,155.9,192.65,157,191 C158.1,189.35,161.475,187.325,164.5,186.5 C167.525,185.675,170.45,185.675,171,186.5 M100,201 C94.5,201,86.625,201.9,82.5,203 C78.375,204.1,74.325,204.775,73.5,204.5 C72.675,204.225,71.775,203.55,71.5,203 C71.225,202.45,69.875,203.35,68.5,205 C67.125,206.65,65.325,210.7,64.5,214 C63.675,217.3,62.775,224.5,62.5,230 C62.225,235.5,62.9,243.15,64,247 C65.1,250.85,67.125,254.9,68.5,256 C69.875,257.1,73.7,258.45,77,259 C80.3,259.55,106.175,260,134.5,260 C162.825,260,187.8,259.325,190,258.5 C192.2,257.675,194.45,256.325,195,255.5 C195.55,254.675,183.175,254,167.5,254 C150.21,254,138.017,253.213,136.5,252 C135.125,250.9,133.55,248.425,133,246.5 C132.45,244.575,131.775,238.725,131.5,233.5 C131.225,228.275,131,219.275,131,213.5 L131,203 L120.5,202 C114.725,201.45,105.5,201,100,201 M266.5,205 C270.625,206.1,274.225,207.45,274.5,208 C274.775,208.55,271.625,209,267.5,209 L260,209 L259.5,206 L259,203 L266.5,205 M436,219 C439.3,219,446.275,219.225,451.5,219.5 L461,220 L461,226 C461,229.3,460.55,233.125,460,234.5 C459.25,236.375,455.749,237,446,237 C438.85,237,431.875,236.55,430.5,236 C428.788,235.315,428,232.95,428,228.5 C428,224.925,428.45,221.325,429,220.5 C429.55,219.675,432.7,219,436,219 M491.5,253.5 C491.225,253.225,489.65,254.125,488,255.5 C486.35,256.875,482.975,258.675,480.5,259.5 C478.025,260.325,471.725,261.225,466.5,261.5 C461.275,261.775,426.4,262,389,262 C351.6,262,320.325,262.45,319.5,263 C318.675,263.55,320.7,264.45,324,265 C327.3,265.55,338.775,266.225,349.5,266.5 C360.225,266.775,391.725,267,419.5,267 C447.275,267,473.6,266.325,478,265.5 L486,264 L489,259 C490.65,256.25,491.775,253.775,491.5,253.5 " fill="rgb(0, 0, 0)" stroke="none" fill-rule="evenodd"></path></svg>