<?xml version="1.0" encoding="UTF-8" standalone="no"?>
<svg xmlns="http://www.w3.org/2000/svg" version="1.1" width="600" height="354" viewbox="0 0 600 354">
<title>undefined</title><path d="M300,0 L0,0 L0,177 L0,354 L300,354 L600,354 L600,177 L600,0 L300,0 " fill="rgb(241, 177, 193)" stroke="none" fill-rule="evenodd"></path><path d="M300,0 L0,0 L0,177 L0,354 L300,354 L600,354 L600,177 L600,0 L300,0 " fill="rgb(255, 255, 255)" stroke="none" fill-rule="evenodd"></path><path d="M25,10.5 C21.15,10.225,16.425,10.675,14.5,11.5 C12.343,12.425,10.425,14.918,9.5,18 C8.675,20.75,7.775,27.275,7.5,32.5 C7.225,37.725,7.225,44.025,7.5,46.5 C7.775,48.975,8.225,52.575,8.5,54.5 C8.775,56.425,10.575,58.9,12.5,60 C14.425,61.1,19.375,62,23.5,62 C27.625,62,31.675,62.225,32.5,62.5 C33.325,62.775,36.025,62.775,38.5,62.5 C40.975,62.225,47.05,62,52,62 C56.95,62,61.225,62.225,61.5,62.5 C61.775,62.775,62.45,62.775,63,62.5 C63.55,62.225,65.8,62.45,68,63 C70.2,63.55,73.125,65.125,74.5,66.5 C75.875,67.875,78.575,70.575,80.5,72.5 C82.425,74.425,84.45,77.575,85,79.5 C85.55,81.425,85.775,89.975,85.5,98.5 C85.225,107.025,84.775,116.025,84.5,118.5 C84.225,120.975,83.325,123.9,82.5,125 C81.659,126.122,75.072,127.22,67.5,127.5 C60.075,127.775,51.975,128.225,49.5,128.5 C47.025,128.775,42.75,129.225,40,129.5 C37.25,129.775,33.875,131.35,32.5,133 C30.87,134.956,29.826,141.045,29.5,150.5 C29.225,158.475,29,175.8,29,189 C29,202.618,29.865,214.514,31,216.5 C32.235,218.661,34.913,220.383,38,221 C40.75,221.55,45.7,222,49,222 C52.3,222,57.025,222.225,59.5,222.5 C61.975,222.775,66.475,223,69.5,223 C72.525,223,76.8,223.45,79,224 L83,225 L84,234.5 C84.55,239.725,85,249.175,85,255.5 C85,261.825,85.225,267.9,85.5,269 C85.775,270.1,85.1,272.575,84,274.5 C82.9,276.425,79.525,280.025,76.5,282.5 C73.475,284.975,69.875,287.45,68.5,288 C67.125,288.55,54.525,289,40.5,289 C21.758,289,14.205,289.663,12,291.5 C9.719,293.401,8.76,297.357,8,308 C7.45,315.7,7.675,325.375,8.5,329.5 C9.325,333.625,11.125,337.675,12.5,338.5 C13.875,339.325,17.925,340.225,21.5,340.5 C25.075,340.775,30.025,340.775,32.5,340.5 C34.975,340.225,48.025,340.225,61.5,340.5 C74.975,340.775,99.5,341,116,341 C132.5,341,148.025,340.775,150.5,340.5 C152.975,340.225,157.925,340.225,161.5,340.5 C165.075,340.775,168.9,340.325,170,339.5 C171.1,338.675,172.675,335.75,173.5,333 C174.325,330.25,175.45,324.4,176,320 C176.55,315.6,176.55,309.3,176,306 C175.45,302.7,174.55,298.2,174,296 C173.425,293.699,171.514,291.363,169.5,290.5 C167.575,289.675,154.975,289,141.5,289 L117,289 L112.5,285 C110.025,282.8,106.875,278.975,105.5,276.5 C104.098,273.976,103,267.39,103,261.5 C103,255.725,103.225,248.975,103.5,246.5 C103.775,244.025,104,239.075,104,235.5 C104,231.925,104.45,228.325,105,227.5 C105.55,226.675,110.275,225.775,115.5,225.5 C120.725,225.225,131.3,225.225,139,225.5 C146.7,225.775,155.025,226.225,157.5,226.5 C159.975,226.775,165.825,227,170.5,227 C175.175,227,181.025,227.225,183.5,227.5 C185.975,227.775,191.375,228,195.5,228 C199.625,228,205.025,228.225,207.5,228.5 C209.975,228.775,213.575,228.775,215.5,228.5 C217.967,228.148,219.295,226.819,220,224 C220.55,221.8,221.45,219.775,222,219.5 C222.55,219.225,223.45,220.125,224,221.5 C224.55,222.875,225,230.075,225,237.5 C225,244.925,224.1,252.575,223,254.5 C221.9,256.425,220.775,258.9,220.5,260 C220.225,261.1,220.675,262.9,221.5,264 C222.325,265.1,224.125,266.45,225.5,267 C226.875,267.55,229.125,267.775,230.5,267.5 C231.875,267.225,234.575,265.425,236.5,263.5 C238.888,261.112,241.429,260.159,244.5,260.5 L249,261 L249.5,267.5 C249.775,271.075,249.1,275.125,248,276.5 C246.9,277.875,243.525,279.9,240.5,281 L235,283 L234,278.5 C233.205,274.924,232.178,273.897,229,273.5 C225.811,273.101,224.797,273.71,224,276.5 C223.45,278.425,223,284.05,223,289 L223,298 L226.5,299 C228.425,299.55,230.675,299.1,231.5,298 C232.325,296.9,233.45,293.975,234,291.5 C234.795,287.924,236.232,286.486,241,284.5 C244.3,283.125,248.125,282.225,249.5,282.5 C250.875,282.775,252.675,284.35,253.5,286 C254.325,287.65,255.225,289.225,255.5,289.5 C255.775,289.775,252.85,292.25,249,295 C245.15,297.75,240.875,301.125,239.5,302.5 C238.125,303.875,236.55,305.45,236,306 C235.45,306.55,236.8,306.55,239,306 C241.2,305.45,246.6,302.525,251,299.5 C256.064,296.018,259.917,294.367,261.5,295 C263.426,295.77,264.115,295.197,264.5,292.5 C264.808,290.347,266.732,288.038,269.5,286.5 C271.975,285.125,278.275,283.775,283.5,283.5 C288.725,283.225,307.625,283,325.5,283 C343.375,283,358.45,283.675,359,284.5 C359.563,285.344,356.064,286.437,351,287 L342,288 L341,294 L340,300 L335.5,301 L331,302 L331.5,307 L332,312 L343.5,312.5 C351.527,312.849,355.453,313.755,356.5,315.5 C357.325,316.875,358.45,321.15,359,325 C359.55,328.85,360.9,333.125,362,334.5 C363.1,335.875,367.825,337.675,372.5,338.5 C377.175,339.325,383.25,339.55,386,339 C388.75,338.45,393.475,338,396.5,338 C399.525,338,404.25,338.45,407,339 C409.75,339.55,418.075,339.775,425.5,339.5 C432.925,339.225,440.8,339.225,443,339.5 C445.2,339.775,449.025,339.775,451.5,339.5 C453.975,339.225,459.375,339,463.5,339 C467.625,339,472.8,339.225,475,339.5 C477.2,339.775,481.025,339.775,483.5,339.5 C485.975,339.225,490.925,339,494.5,339 C498.075,339,502.8,339.225,505,339.5 C507.2,339.775,511.025,339.775,513.5,339.5 C515.975,339.225,520.925,339,524.5,339 C528.075,339,532.8,339.225,535,339.5 C537.2,339.775,542.15,339.55,546,339 C549.85,338.45,555.25,338.225,558,338.5 C560.75,338.775,565.025,339.225,567.5,339.5 C569.975,339.775,573.575,339.325,575.5,338.5 C577.425,337.675,579.675,335.875,580.5,334.5 C581.325,333.125,582.45,329.75,583,327 C583.55,324.25,584.45,318.85,585,315 C585.55,311.15,586.225,306.425,586.5,304.5 C586.775,302.575,586.55,299.425,586,297.5 C585.45,295.575,584.55,289.95,584,285 C583.45,280.05,581.875,274.65,580.5,273 C578.65,270.78,575.269,269.87,567.5,269.5 C561.725,269.225,554.975,268.775,552.5,268.5 C550.025,268.225,543.725,268.225,538.5,268.5 C531.614,268.862,528.587,268.312,527.5,266.5 C526.675,265.125,526,223.275,526,173.5 C526,101.652,526.515,82.794,528.5,82 C529.875,81.45,534.15,80.775,538,80.5 C541.85,80.225,547.025,80.225,549.5,80.5 C551.975,80.775,559.175,80.775,565.5,80.5 C572.85,80.18,577.902,79.098,579.5,77.5 C580.875,76.125,582.45,72.3,583,69 C583.55,65.7,584.45,59.85,585,56 C585.55,52.15,586.225,47.425,586.5,45.5 C586.775,43.575,586.55,40.875,586,39.5 C585.45,38.125,584.55,32.725,584,27.5 C583.45,22.275,582.1,16.875,581,15.5 C579.9,14.125,576.975,12.325,574.5,11.5 C572.025,10.675,563.7,10.225,556,10.5 C548.3,10.775,539.975,10.775,537.5,10.5 C535.025,10.225,528.05,10.225,522,10.5 C515.95,10.775,508.975,10.775,506.5,10.5 C504.025,10.225,497.05,10.225,491,10.5 C484.95,10.775,477.975,10.775,475.5,10.5 C473.025,10.225,465.6,10.225,459,10.5 C452.4,10.775,445.2,10.775,443,10.5 C440.8,10.225,436.975,10.225,434.5,10.5 C432.025,10.775,426.625,11,422.5,11 C418.375,11,412.975,10.775,410.5,10.5 C408.025,10.225,403.975,10.225,401.5,10.5 C399.025,10.775,394.075,11,390.5,11 C386.925,11,381.975,10.775,379.5,10.5 C377.025,10.225,372.3,10.675,369,11.5 C364.333,12.667,362.556,14,361,17.5 C359.9,19.975,358.55,25.375,358,29.5 L357,37 L345,37.5 C336.236,37.865,332.73,38.674,332,40.5 C331.45,41.875,331.225,44.35,331.5,46 C331.838,48.03,333.455,49.323,336.5,50 L341,51 L342,56.5 L343,62 L351.5,63 C358.003,63.765,359.413,64.352,357.5,65.5 C356.125,66.325,336.55,67,314,67 L273,67 L268.5,64 C265.155,61.77,264.128,60.102,264.5,57.5 C264.789,55.479,264.366,54.422,263.5,55 C262.675,55.55,260.875,56.225,259.5,56.5 C258.125,56.775,255.65,55.875,254,54.5 C252.35,53.125,248.075,50.2,244.5,48 C240.925,45.8,237.325,44.225,236.5,44.5 C235.675,44.775,239.725,48.6,245.5,53 C251.275,57.4,256.225,61.225,256.5,61.5 C256.775,61.775,256.1,62.225,255,62.5 C253.9,62.775,252.1,64.35,251,66 C249.503,68.245,247.867,68.748,244.5,68 C242.025,67.45,238.875,66.1,237.5,65 C236.125,63.9,234.55,60.525,234,57.5 C233.2,53.1,232.3,51.9,229.5,51.5 C227.479,51.211,225.366,52.056,224.5,53.5 C223.675,54.875,223,60.5,223,66 C223,73.057,223.736,76.441,225.5,77.5 C226.875,78.325,228.9,78.775,230,78.5 C231.1,78.225,232.45,76.425,233,74.5 C233.55,72.575,234.225,70.325,234.5,69.5 C234.775,68.675,238.15,69.35,242,71 L249,74 L249.5,88.5 C249.775,96.475,250,108.4,250,115 C250,121.6,249.55,128.125,249,129.5 C248.315,131.212,247.842,131.369,247.5,130 C247.204,128.816,244.959,128.204,242,128.5 C239.25,128.775,235.875,129.675,234.5,130.5 C233.125,131.325,229.525,131.775,226.5,131.5 L221,131 L220,127 C219.45,124.8,218.55,121.875,218,120.5 C217.45,119.125,216.55,115.525,216,112.5 L215,107 L208.5,103.5 C204.925,101.575,201.55,100.225,201,100.5 C200.45,100.775,200.225,101.9,200.5,103 C200.775,104.1,201.9,106.35,203,108 C204.1,109.65,204.775,113.475,204.5,116.5 L204,122 L191,122.5 C183.85,122.775,175.975,123.225,173.5,123.5 C171.025,123.775,165.4,124,161,124 C156.6,124,150.975,124.225,148.5,124.5 C146.025,124.775,140.85,125,137,125 C133.15,125,127.975,125.225,125.5,125.5 C123.025,125.775,117.625,126,113.5,126 L106,126 L105,121 C104.45,118.25,104,112.4,104,108 C104,103.6,103.775,97.975,103.5,95.5 C103.225,93.025,103,87.85,103,84 L103,77 L109.5,70 C114.082,65.065,117.328,62.852,120.5,62.5 C122.975,62.225,126.125,62.225,127.5,62.5 C128.875,62.775,132.025,62.775,134.5,62.5 C136.975,62.225,141.25,62,144,62 C146.75,62,150.35,62.225,152,62.5 C153.65,62.775,157.025,62.775,159.5,62.5 C161.975,62.225,165.575,61.775,167.5,61.5 C169.568,61.205,171.614,59.568,172.5,57.5 C173.325,55.575,174.45,50.625,175,46.5 C175.55,42.375,176.225,37.875,176.5,36.5 C176.775,35.125,176.55,31.75,176,29 C175.45,26.25,174.55,21.75,174,19 C173.383,15.913,171.661,13.235,169.5,12 C167.575,10.9,161.275,10.225,155.5,10.5 C149.725,10.775,142.975,10.775,140.5,10.5 C138.025,10.225,114.625,10,88.5,10 C62.375,10,38.975,10.225,36.5,10.5 C34.025,10.775,28.85,10.775,25,10.5 M484,82.5 C484.55,82.775,486.125,84.35,487.5,86 C489.452,88.342,490,107.419,490,173 C490,219.2,489.55,258.575,489,260.5 C488.45,262.425,486.875,264.9,485.5,266 L483,268 L483,175 C483,123.85,483.45,82.225,484,82.5 " fill="rgb(0, 0, 0)" stroke="none" fill-rule="evenodd"></path></svg>