<svg xmlns="http://www.w3.org/2000/svg" shape-rendering="geometricPrecision" text-rendering="geometricPrecision" image-rendering="optimizeQuality" fill-rule="evenodd" clip-rule="evenodd" viewBox="0 0 424 511.543"><path fill="#262626" fill-rule="nonzero" d="M86.371 413.439c-11.766 0-11.766-17.89 0-17.89h102.733a129.853 129.853 0 00-.316 8.945c0 3.008.112 5.99.316 8.945H86.371zm73.239-147.132H88.386v-16.518l33.827-44.134-.395-.794h-27.75l-2.378-21.143h67.391v16.519l-33.431 44.135.395.792h33.565v21.143zm14.866 0v-82.589h26.427v82.589h-26.427zm88.203-19.953h-18.168v19.953h-25.437v-82.589h41.624c18.94 0 28.41 10.175 28.41 30.526 0 11.188-2.467 19.468-7.4 24.841-1.849 2.026-4.407 3.746-7.664 5.154-3.259 1.409-7.05 2.115-11.365 2.115zm-18.168-41.493v20.35h7.07c3.171 0 5.484-.329 6.937-.991 1.453-.661 2.18-2.18 2.18-4.558v-9.25c0-2.379-.728-3.9-2.18-4.559-1.453-.659-3.768-.992-6.937-.992h-7.07zm21.298-180.602v29.103c0 65.658 15.314 69.469 69.082 69.469h22.031l-91.113-98.572zm94.336 115.919h-21.48c-61.025 0-90.202-4.092-90.202-86.277V17.347H56.817c-21.693 0-39.47 17.778-39.47 39.472v264.794h201.856a128.538 128.538 0 00-12.518 17.541H17.347v89.824c0 21.622 17.85 39.47 39.47 39.47h149.048a128.452 128.452 0 0012.01 17.347H56.817C25.626 485.795 0 460.171 0 428.978V56.819C0 25.553 25.55 0 56.817 0h206.336a8.656 8.656 0 016.926 3.454l105.073 113.675c2.191 2.367 2.339 4.663 2.339 7.517v166.861a127.423 127.423 0 00-17.346-7.709v-143.62z"/><path fill="red" d="M316.953 297.447c59.119 0 107.047 47.93 107.047 107.049 0 59.118-47.928 107.047-107.047 107.047-59.12 0-107.049-47.929-107.049-107.047 0-59.119 47.929-107.049 107.049-107.049z"/><path fill="#fff" fill-rule="nonzero" d="M334.51 399.621l17.723 6.198c11.721 4.5 23.776-3.795 14.691-14.12-11.057-12.716-27.851-30.19-40.069-41.828-7.589-7.585-11.99-7.651-19.605-.062-13.524 13.279-26.802 28.033-40.021 41.759-9.456 10.28 2.34 18.956 14.583 14.251l17.538-6.135c-1.284 16.628-2.886 32.525-3.857 49.142 0 3.059 2.558 5.504 5.543 5.735 10.534 0 21.291.247 31.797 0 2.982-.231 5.54-2.68 5.54-5.735l-3.863-49.205z"/></svg>