<?xml version="1.0" encoding="UTF-8" standalone="no"?>
<svg xmlns="http://www.w3.org/2000/svg" version="1.1" width="147" height="226" viewbox="0 0 147 226">
<title>undefined</title><path d="M73.5,0 L0,0 L0,113 L0,226 L73.5,226 L147,226 L147,113 L147,0 L73.5,0 " fill="rgb(241, 177, 193)" stroke="none" fill-rule="evenodd"></path><path d="M73.5,0 L0,0 L0,113 L0,226 L73.5,226 L147,226 L147,113 L147,0 L73.5,0 " fill="rgb(255, 255, 255)" stroke="none" fill-rule="evenodd"></path><path d="M50.5,15 C46.925,15,42.2,15.45,40,16 L36,17 L35.5,26 C35.225,30.95,34.55,35.9,34,37 C33.45,38.1,31.875,40.35,30.5,42 C28.956,43.853,28,48.632,28,54.5 C28,59.725,28.225,64.9,28.5,66 C28.775,67.1,28.775,68.675,28.5,69.5 C28.225,70.325,28.225,72.35,28.5,74 C28.775,75.65,28.775,77.45,28.5,78 C28.225,78.55,28.225,80.125,28.5,81.5 C28.775,82.875,28.775,84.675,28.5,85.5 C28.225,86.325,28.225,87.9,28.5,89 C28.775,90.1,28.775,91.675,28.5,92.5 C28.225,93.325,28.9,95.35,30,97 C31.131,98.697,31.783,106.3,31.5,114.5 C31.225,122.475,31,132.375,31,136.5 C31,140.625,31.675,145.125,32.5,146.5 C33.419,148.031,36.131,149,39.5,149 C42.525,149,45.225,149.675,45.5,150.5 C45.775,151.325,37.45,152,27,152 L8,152 L7.5,161.5 C7.225,166.725,7,175.5,7,181 C7,186.5,6.775,193.025,6.5,195.5 C6.225,197.975,6,204.275,6,209.5 C6,214.725,6.675,219.45,7.5,220 C8.325,220.55,17.775,221.225,28.5,221.5 C39.225,221.775,68.7,222,94,222 C119.3,222,140.9,221.325,142,220.5 C143.27,219.547,144,206.961,144,186 L144,153 L134.5,152.5 C129.275,152.225,120.5,152,115,152 C109.5,152,104.55,151.775,104,151.5 C103.45,151.225,100.3,151.45,97,152 C93.7,152.55,90.55,152.775,90,152.5 C89.45,152.225,92.6,151.55,97,151 C101.4,150.45,107.025,149.775,109.5,149.5 C111.975,149.225,115.125,148.55,116.5,148 C118.435,147.226,119,141.797,119,124 C119,111.35,118.775,100.1,118.5,99 C118.225,97.9,118.9,96.325,120,95.5 C121.1,94.675,122,91.3,122,88 C122,84.7,121.775,81.775,121.5,81.5 C121.225,81.225,121.225,79.425,121.5,77.5 C121.775,75.575,121.775,73.775,121.5,73.5 C121.225,73.225,121.225,70.975,121.5,68.5 C121.775,66.025,122,59.275,122,53.5 C122,47.61,121.122,42.341,120,41.5 C118.9,40.675,117.1,40.225,116,40.5 C114.631,40.842,114.158,38.003,114.5,31.5 C114.775,26.275,114.55,20.65,114,19 L113,16 L89.5,16 C76.575,16,63.975,15.775,61.5,15.5 C59.025,15.225,54.075,15,50.5,15 M45.5,96.5 C46.875,96.775,47.775,97.45,47.5,98 C47.225,98.55,47.45,98.775,48,98.5 C48.55,98.225,51.25,98,54,98 C56.75,98,61.025,98.225,63.5,98.5 C65.975,98.775,68.45,98.775,69,98.5 C69.55,98.225,71.8,98.225,74,98.5 C76.2,98.775,78.45,98.775,79,98.5 C79.55,98.225,82.025,97.775,84.5,97.5 C86.975,97.225,90.8,97.225,93,97.5 C95.2,97.775,97.225,97.775,97.5,97.5 C97.775,97.225,99.575,97.225,101.5,97.5 C103.425,97.775,105.675,99.125,106.5,100.5 C107.325,101.875,108.225,108.4,108.5,115 C108.775,121.6,108.775,126.55,108.5,126 C108.225,125.45,107.55,125.225,107,125.5 C106.45,125.775,106,120.6,106,114 L106,102 L102,101 C99.8,100.45,90.575,100,81.5,100 C72.425,100,60.725,100.225,55.5,100.5 C48.783,100.854,45.707,101.732,45,103.5 C44.45,104.875,44,108.7,44,112 C44,115.3,43.775,120.025,43.5,122.5 C43.225,124.975,42.55,126.325,42,125.5 C41.45,124.675,41,120.85,41,117 C41,113.15,41.45,106.85,42,103 C42.786,97.495,43.534,96.107,45.5,96.5 M67,152 C71.95,152,78.025,152.225,80.5,152.5 C82.975,152.775,80.95,153,76,153 C71.05,153,64.975,152.775,62.5,152.5 C60.025,152.225,62.05,152,67,152 M14.5,160.5 C15.325,160.775,16.9,160.775,18,160.5 C19.1,160.225,43.625,160,72.5,160 C101.375,160,128.15,160.45,132,161 L139,162 L139,170.5 C139,175.175,138.325,179.225,137.5,179.5 C136.675,179.775,135.775,178.875,135.5,177.5 C135.225,176.125,134.55,172.75,134,170 L133,165 L124.5,165 C119.825,165,113.975,164.775,111.5,164.5 C109.025,164.225,105.425,164.225,103.5,164.5 C101.575,164.775,97.975,164.775,95.5,164.5 C93.025,164.225,90.325,164.225,89.5,164.5 C88.675,164.775,87.1,164.775,86,164.5 C84.9,164.225,81.975,164.225,79.5,164.5 C77.025,164.775,74.775,164.775,74.5,164.5 C74.225,164.225,67.25,164.225,59,164.5 C50.75,164.775,41.975,164.775,39.5,164.5 C37.025,164.225,34.325,164.225,33.5,164.5 C32.675,164.775,28.625,164.775,24.5,164.5 L17,164 L16,172 C15.45,176.4,14.325,179.775,13.5,179.5 C12.675,179.225,12.225,174.725,12.5,169.5 C12.775,164.275,13.675,160.225,14.5,160.5 M18.5,184 C18.775,184,20.8,184.45,23,185 C25.2,185.55,47.7,186,73,186 C98.3,186,122.15,185.55,126,185 L133,184 L133.5,188.5 C133.775,190.975,135.125,193.9,136.5,195 C138.115,196.292,139,199.831,139,205 C139,209.4,138.55,213.675,138,214.5 C137.45,215.325,134.975,216.225,132.5,216.5 C130.025,216.775,105.5,217,78,217 C50.5,217,24.4,216.55,20,216 L12,215 L12,206.5 C12,201.825,12.45,197.325,13,196.5 C13.55,195.675,14.675,194.55,15.5,194 C16.325,193.45,16.775,192.55,16.5,192 C16.225,191.45,16.45,189.425,17,187.5 C17.55,185.575,18.225,184,18.5,184 M29,194.5 C27.35,194.225,23.975,194.45,21.5,195 L17,196 L16.5,204 L16,212 L50.5,212.5 C69.475,212.775,92.2,213,101,213 C109.8,213,119.025,212.775,121.5,212.5 C123.975,212.225,127.8,211.775,130,211.5 L134,211 L134.5,205.5 C134.775,202.475,134.55,199.1,134,198 C133.445,196.889,128.777,195.778,123.5,195.5 C118.275,195.225,101.85,195,87,195 C72.15,195,57.975,194.775,55.5,194.5 C53.025,194.225,48.975,194.225,46.5,194.5 C44.025,194.775,40.425,194.775,38.5,194.5 C36.575,194.225,34.325,194.225,33.5,194.5 C32.675,194.775,30.65,194.775,29,194.5 " fill="rgb(0, 0, 0)" stroke="none" fill-rule="evenodd"></path></svg>