<?xml version="1.0" encoding="UTF-8" standalone="no"?>
<svg xmlns="http://www.w3.org/2000/svg" version="1.1" width="385" height="173" viewbox="0 0 385 173">
<title>undefined</title><path d="M192.5,0 L0,0 L0,86.5 L0,173 L192.5,173 L385,173 L385,86.5 L385,0 L192.5,0 " fill="rgb(241, 177, 193)" stroke="none" fill-rule="evenodd"></path><path d="M192.5,0 L0,0 L0,86.5 L0,173 L192.5,173 L385,173 L385,86.5 L385,0 L192.5,0 " fill="rgb(255, 255, 255)" stroke="none" fill-rule="evenodd"></path><path d="M73.5,18 C72.675,18,61.65,19.8,49,22 C36.35,24.2,23.975,26.9,21.5,28 L17,30 L22,30.5 L27,31 L27,38 C27,42.608,26.146,45.513,24.5,46.5 C23.125,47.325,20.65,48.45,19,49 L16,50 L21.5,51 L27,52 L26.5,57 C26.225,59.75,26.225,62.45,26.5,63 C26.775,63.55,26.775,64.225,26.5,64.5 C26.225,64.775,26.225,65.225,26.5,65.5 C26.775,65.775,24.975,66.675,22.5,67.5 C20.025,68.325,17.55,69.225,17,69.5 C16.45,69.775,18.475,70.45,21.5,71 L27,72 L26.5,77.5 C26.225,80.525,26.225,83.675,26.5,84.5 C26.775,85.325,26.325,86.45,25.5,87 C24.675,87.55,22.2,88.45,20,89 L16,90 L21,91 C23.75,91.55,26.225,92.675,26.5,93.5 C26.775,94.325,26.775,95.225,26.5,95.5 C26.225,95.775,26.225,98.025,26.5,100.5 C26.775,102.975,26.55,105.675,26,106.5 C25.45,107.325,22.975,108.45,20.5,109 L16,110 L21,111.5 C23.75,112.325,26.225,113.9,26.5,115 C26.775,116.1,26.775,117.45,26.5,118 C26.225,118.55,26.225,121.025,26.5,123.5 L27,128 L22,129 L17,130 L22,132 C24.75,133.1,26.775,134.45,26.5,135 C26.225,135.55,26.225,138.025,26.5,140.5 C26.775,142.975,26.55,145.9,26,147 C25.45,148.1,23.65,149.225,22,149.5 C20.35,149.775,18.325,149.775,17.5,149.5 C16.675,149.225,16.675,149.45,17.5,150 C18.325,150.55,22.15,151.675,26,152.5 C29.85,153.325,42.45,155.575,54,157.5 L75,161 L75,141 L75,121 L78,120 C79.65,119.45,81.675,118.1,82.5,117 C83.325,115.9,86.025,115.225,88.5,115.5 C90.975,115.775,93.675,116.45,94.5,117 C95.325,117.55,98.25,118.45,101,119 C103.75,119.55,106.675,120.225,107.5,120.5 C108.325,120.775,104.05,121,98,121 L87,121 L86,124 C85.45,125.65,85.225,129.025,85.5,131.5 C85.775,133.975,85.775,136.225,85.5,136.5 C85.225,136.775,85.675,138.35,86.5,140 C87.668,142.336,90.102,143.111,97.5,143.5 C102.725,143.775,118.025,144,131.5,144 C149.971,144,156.492,143.385,158,141.5 C159.1,140.125,160.225,137.65,160.5,136 C160.775,134.35,161.45,132.775,162,132.5 C162.55,132.225,163.225,129.075,163.5,125.5 C163.775,121.925,163.775,118.775,163.5,118.5 C163.225,118.225,163.675,118.45,164.5,119 C165.325,119.55,166,125.175,166,131.5 C166,140.035,166.774,143.903,169,146.5 C170.65,148.425,173.125,151.125,174.5,152.5 C175.875,153.875,178.8,155.9,181,157 C183.2,158.1,188.375,159.225,192.5,159.5 C196.625,159.775,200.45,159.775,201,159.5 C201.55,159.225,203.35,159.225,205,159.5 C206.65,159.775,210.025,159.775,212.5,159.5 C214.975,159.225,219.7,159.225,223,159.5 C226.3,159.775,229.45,159.775,230,159.5 C230.55,159.225,231.225,159.225,231.5,159.5 C231.775,159.775,232.9,159.775,234,159.5 C235.1,159.225,236.225,159.225,236.5,159.5 C236.775,159.775,237.225,159.775,237.5,159.5 C237.775,159.225,238.225,159.225,238.5,159.5 C238.775,159.775,239.45,159.775,240,159.5 C240.55,159.225,242.35,159.225,244,159.5 C245.65,159.775,248.575,159.775,250.5,159.5 C252.425,159.225,254.225,159.225,254.5,159.5 C254.775,159.775,255.225,159.775,255.5,159.5 C255.775,159.225,256.9,159.225,258,159.5 C259.1,159.775,260.225,159.775,260.5,159.5 C260.775,159.225,261.45,159.225,262,159.5 C262.55,159.775,264.35,159.775,266,159.5 C267.65,159.225,269.45,159.225,270,159.5 C270.55,159.775,271.225,159.775,271.5,159.5 C271.775,159.225,273.125,159.225,274.5,159.5 C275.875,159.775,279.025,159.55,281.5,159 C284.491,158.335,286.838,156.491,288.5,153.5 C289.875,151.025,291.675,147.875,292.5,146.5 C293.325,145.125,294,139.95,294,135 L294,126 L289.5,123.5 C287.025,122.125,282.75,120.55,280,120 C277.25,119.45,273.425,119.45,271.5,120 C269.575,120.55,267.1,122.35,266,124 C264.9,125.65,262.875,127.675,261.5,128.5 C260.125,129.325,256.75,130.45,254,131 C251.25,131.55,234.375,132,216.5,132 C198.625,132,182.2,131.325,180,130.5 C177.8,129.675,174.425,127.425,172.5,125.5 C170.575,123.575,169.225,121.55,169.5,121 C169.775,120.45,169.55,120.225,169,120.5 C168.45,120.775,167.55,118.3,167,115 C166.45,111.7,166,98.875,166,86.5 C166,74.125,166.675,62.65,167.5,61 C168.325,59.35,169.225,58.675,169.5,59.5 C169.775,60.325,169.55,61.675,169,62.5 C168.45,63.325,168.225,64.225,168.5,64.5 C168.775,64.775,168.775,65.675,168.5,66.5 C168.225,67.325,168.225,68.225,168.5,68.5 C168.775,68.775,168.775,71.025,168.5,73.5 C168.225,75.975,168.225,79.8,168.5,82 C168.897,85.178,170.027,86.308,174,87.5 L179,89 L179,104.5 C179,113.025,178.775,120.225,178.5,120.5 C178.225,120.775,184.525,121.225,192.5,121.5 C200.475,121.775,212.175,122,218.5,122 C224.825,122,230.45,121.325,231,120.5 C231.55,119.675,220.525,119,206.5,119 L181,119 L181,104.5 L181,90 L188,94 C191.85,96.2,198.6,99.125,203,100.5 C207.4,101.875,215.05,103.45,220,104 C224.95,104.55,230.35,105.225,232,105.5 C233.65,105.775,232.3,106.225,229,106.5 C225.7,106.775,219.175,106.325,214.5,105.5 C209.825,104.675,202.85,102.875,199,101.5 C195.15,100.125,191.325,98.55,190.5,98 C189.675,97.45,187.425,96.1,185.5,95 L182,93 L182.5,96.5 C182.775,98.425,182.775,100.45,182.5,101 C182.225,101.55,182.225,102.45,182.5,103 C182.775,103.55,182.775,104.45,182.5,105 C182.225,105.55,182.45,108.25,183,111 C183.55,113.75,183.55,116.225,183,116.5 C182.45,116.775,182.225,117.225,182.5,117.5 C182.775,117.775,185.025,117.775,187.5,117.5 C189.975,117.225,199.2,117,208,117 C216.8,117,226.475,117.45,229.5,118 C233.528,118.732,234.732,119.535,234,121 C233.45,122.1,232.775,122.775,232.5,122.5 C232.225,122.225,229.975,122.225,227.5,122.5 C225.025,122.775,212.875,123,200.5,123 C188.125,123,177.55,122.325,177,121.5 C176.45,120.675,176.225,119.325,176.5,118.5 C176.775,117.675,176.775,116.775,176.5,116.5 C176.225,116.225,176.45,115.775,177,115.5 C177.55,115.225,177.775,114.55,177.5,114 C177.225,113.45,177.225,112.775,177.5,112.5 C177.775,112.225,177.775,110.2,177.5,108 C177.225,105.8,177.225,103.775,177.5,103.5 C177.775,103.225,177.775,102.55,177.5,102 C177.225,101.45,177.225,100.775,177.5,100.5 C177.775,100.225,177.55,98.425,177,96.5 C176.45,94.575,176.225,92.325,176.5,91.5 C176.775,90.675,175.425,89.55,173.5,89 C171.575,88.45,169.775,87.775,169.5,87.5 C169.225,87.225,169,93.525,169,101.5 C169,109.475,169.45,116.675,170,117.5 C170.55,118.325,171.225,119.45,171.5,120 C171.775,120.55,171.775,121.45,171.5,122 C171.225,122.55,172.575,123.9,174.5,125 C176.425,126.1,178.675,127.45,179.5,128 C180.325,128.55,180.775,128.55,180.5,128 C180.225,127.45,180.675,127.45,181.5,128 C182.325,128.55,182.775,129.225,182.5,129.5 C182.225,129.775,196.85,130,215,130 C233.15,130,248.675,129.775,249.5,129.5 C250.325,129.225,251.225,129.225,251.5,129.5 C251.775,129.775,251.775,129.55,251.5,129 C251.225,128.45,251.9,128.225,253,128.5 C254.1,128.775,256.35,128.325,258,127.5 C259.65,126.675,261.675,125.55,262.5,125 C263.325,124.45,264.9,122.65,266,121 C267.1,119.35,268.225,117.775,268.5,117.5 C268.775,117.225,268.775,116.325,268.5,115.5 C268.225,114.675,268.225,113.55,268.5,113 C268.775,112.45,268.775,109.975,268.5,107.5 C268.225,105.025,268.225,96.025,268.5,87.5 C268.775,78.975,268.775,71.775,268.5,71.5 C268.225,71.225,268.225,70.1,268.5,69 C268.775,67.9,268.775,66.325,268.5,65.5 C268.225,64.675,268.45,64.225,269,64.5 C269.55,64.775,270.225,71.525,270.5,79.5 C270.775,87.475,271,98.5,271,104 C271,109.5,270.775,114.675,270.5,115.5 C270.225,116.325,271.8,116.55,274,116 C276.2,115.45,278.9,114.325,280,113.5 C281.1,112.675,283.8,112.675,286,113.5 C288.2,114.325,291.35,114.775,293,114.5 C294.984,114.169,295.831,113.154,295.5,111.5 C295.123,109.613,293.16,109.123,287.5,109.5 C283.375,109.775,280.45,109.325,281,108.5 C281.55,107.675,282,104.075,282,100.5 L282,94 L292.5,93.5 C298.275,93.225,305.025,93.225,307.5,93.5 C309.975,93.775,314.925,94,318.5,94 C322.075,94,325.45,94.45,326,95 C326.55,95.55,321.375,95.775,314.5,95.5 C307.625,95.225,301.775,94.775,301.5,94.5 C301.225,94.225,299.65,94.225,298,94.5 C296.35,94.775,294.1,94.775,293,94.5 C291.9,94.225,290.325,94.45,289.5,95 C288.675,95.55,287.775,95.775,287.5,95.5 C287.225,95.225,286.55,95.225,286,95.5 C285.45,95.775,284.775,95.775,284.5,95.5 C284.225,95.225,283.775,95.45,283.5,96 C283.225,96.55,283.225,99.025,283.5,101.5 C283.775,103.975,283.775,106.45,283.5,107 C283.225,107.55,285.925,107.775,289.5,107.5 C293.075,107.225,296.225,107.45,296.5,108 C296.775,108.55,301.275,108.775,306.5,108.5 C311.725,108.225,318.025,107.775,320.5,107.5 C322.975,107.225,325.675,106.55,326.5,106 C327.325,105.45,330.025,104.55,332.5,104 C334.975,103.45,337.225,103.225,337.5,103.5 C337.775,103.775,338.225,103.775,338.5,103.5 C338.775,103.225,339.45,103.225,340,103.5 C340.55,103.775,343.7,103.1,347,102 C350.3,100.9,353.45,100.225,354,100.5 C354.55,100.775,355.675,100.325,356.5,99.5 C357.325,98.675,357.55,97.775,357,97.5 C356.45,97.225,357.125,97.225,358.5,97.5 C359.875,97.775,361.45,96.875,362,95.5 C362.55,94.125,362.55,91.875,362,90.5 C361.45,89.125,361.45,87.55,362,87 C362.55,86.45,362.55,85.775,362,85.5 C361.45,85.225,361.225,84.55,361.5,84 C361.775,83.45,360.425,82.1,358.5,81 C356.575,79.9,354.55,79.225,354,79.5 C353.45,79.775,352.325,79.55,351.5,79 C350.675,78.45,346.175,77.55,341.5,77 C336.825,76.45,333.9,76.675,335,77.5 C336.1,78.325,337.225,79.675,337.5,80.5 C337.775,81.325,333.95,82,329,82 C324.05,82,319.775,82.225,319.5,82.5 C319.225,82.775,318.775,82.775,318.5,82.5 C318.225,82.225,315.975,82.225,313.5,82.5 C311.025,82.775,304.725,83,299.5,83 C294.275,83,288.2,82.775,286,82.5 L282,82 L282,87.5 L282,93 L281,88 C280.45,85.25,280.45,82.325,281,81.5 C281.55,80.675,282.225,80.225,282.5,80.5 C282.775,80.775,283.225,80.775,283.5,80.5 C283.775,80.225,284.675,80.225,285.5,80.5 C286.325,80.775,287.225,80.775,287.5,80.5 C287.775,80.225,289.35,80.45,291,81 C292.65,81.55,294.45,81.775,295,81.5 C295.55,81.225,297.8,81.225,300,81.5 C302.2,81.775,304.9,81.775,306,81.5 C307.1,81.225,308.9,81.225,310,81.5 C311.1,81.775,313.125,81.775,314.5,81.5 C315.875,81.225,317.225,81.225,317.5,81.5 C317.775,81.775,318.225,81.775,318.5,81.5 C318.775,81.225,319.225,81.225,319.5,81.5 C319.775,81.775,322.025,81.55,324.5,81 C326.975,80.45,330.575,80.225,332.5,80.5 C334.425,80.775,335.775,80.325,335.5,79.5 C335.225,78.675,334.325,77.55,333.5,77 C332.675,76.45,331.55,75.775,331,75.5 C330.45,75.225,329.55,75.45,329,76 C328.45,76.55,326.65,76.55,325,76 L322,75 L325,74.5 C327.182,74.136,326.636,73.727,323,73 C320.25,72.45,313.5,71.775,308,71.5 C302.5,71.225,297.55,70.775,297,70.5 C296.45,70.225,295.55,70.675,295,71.5 C294.45,72.325,292.875,72.55,291.5,72 C290.125,71.45,288.775,71.225,288.5,71.5 C288.225,71.775,286.875,71.775,285.5,71.5 C284.125,71.225,282.775,71.225,282.5,71.5 C282.225,71.775,281.775,71.325,281.5,70.5 C281.225,69.675,284.375,69.225,288.5,69.5 L296,70 L295.5,67.5 C295.225,66.125,293.425,64.775,291.5,64.5 C289.575,64.225,286.2,64.675,284,65.5 C281.626,66.39,278.984,66.187,277.5,65 C276.125,63.9,273.65,62.775,272,62.5 C270.35,62.225,267.65,60.2,266,58 C264.35,55.8,262.775,53.775,262.5,53.5 C262.225,53.225,262.9,53.225,264,53.5 C265.1,53.775,266.675,55.35,267.5,57 C268.642,59.283,270.673,60,276,60 C279.85,60,284.575,59.325,286.5,58.5 C288.425,57.675,290.9,55.875,292,54.5 C293.1,53.125,294,47.5,294,42 C294,35.727,293.068,30.882,291.5,29 C290.125,27.35,288.1,24.875,287,23.5 C285.726,21.908,281.549,20.818,275.5,20.5 C270.275,20.225,247.325,20,224.5,20 C193.204,20,182.139,20.615,179.5,22.5 C177.575,23.875,174.2,26.8,172,29 C169.8,31.2,167.55,34.8,167,37 C166.45,39.2,166,45.275,166,50.5 C166,56.368,165.235,60.191,164,60.5 C162.842,60.79,162.421,60.369,163,59.5 C163.55,58.675,164,55.75,164,53 C164,50.25,163.1,46.875,162,45.5 C160.9,44.125,159.775,41.65,159.5,40 C159.182,38.094,157.541,36.635,155,36 C152.8,35.45,137.275,35,120.5,35 C97.218,35,89.527,35.592,88,37.5 C86.9,38.875,86,43.825,86,48.5 C86,54.594,86.708,57.283,88.5,58 C89.875,58.55,93.925,59,97.5,59 C101.075,59,105.8,58.775,108,58.5 C110.2,58.225,107.95,58.9,103,60 C98.05,61.1,93.1,62.675,92,63.5 C90.9,64.325,88.2,64.775,86,64.5 C83.8,64.225,81.55,63.1,81,62 C80.412,60.824,80.618,60.412,81.5,61 C82.325,61.55,83.9,62.45,85,63 C86.1,63.55,87.45,63.775,88,63.5 C88.55,63.225,89.45,63.225,90,63.5 C90.55,63.775,91.225,63.55,91.5,63 C91.775,62.45,92.225,61.775,92.5,61.5 C92.775,61.225,92.1,61.225,91,61.5 C89.9,61.775,88.1,61.325,87,60.5 C85.9,59.675,82.75,58.775,80,58.5 L75,58 L75,38 C75,27,74.325,18,73.5,18 M192.5,25.5 C198.825,25.775,206.025,26.225,208.5,26.5 C210.975,26.775,215.475,27,218.5,27 C221.525,27,226.025,27.225,228.5,27.5 C230.975,27.775,235.475,28,238.5,28 C241.525,28,246.025,28.225,248.5,28.5 C250.975,28.775,256.15,29,260,29 C263.85,29,269.025,29.9,271.5,31 C273.975,32.1,276.225,33.9,276.5,35 C276.783,36.133,276.133,35.917,275,34.5 C273.9,33.125,270.975,31.775,268.5,31.5 C266.025,31.225,261.975,30.775,259.5,30.5 C257.025,30.225,250.275,29.775,244.5,29.5 C238.725,29.225,231.975,28.775,229.5,28.5 C227.025,28.225,224.775,28.225,224.5,28.5 C224.225,28.775,221.975,28.775,219.5,28.5 C217.025,28.225,212.975,27.775,210.5,27.5 C208.025,27.225,204.65,27.225,203,27.5 C201.35,27.775,197.075,27.55,193.5,27 C189.925,26.45,184.75,26.675,182,27.5 C179.25,28.325,176.775,28.775,176.5,28.5 C176.225,28.225,177.125,27.325,178.5,26.5 C179.875,25.675,186.175,25.225,192.5,25.5 M41.5,26.5 C42.325,26.775,40.075,27.45,36.5,28 L30,29 L30,85.5 C30,116.575,30.225,144.025,30.5,146.5 L31,151 L38.5,152.5 C43.531,153.506,43.86,153.671,39.5,153 C35.925,152.45,31.875,151.55,30.5,151 C29.125,150.45,28.225,149.775,28.5,149.5 C28.775,149.225,28.775,148.775,28.5,148.5 C28.225,148.225,28.225,147.775,28.5,147.5 C28.775,147.225,29,144.75,29,142 C29,139.25,28.55,135.425,28,133.5 C27.45,131.575,27.225,130.225,27.5,130.5 C27.775,130.775,28.225,128.975,28.5,126.5 C28.775,124.025,28.775,119.975,28.5,117.5 C28.225,115.025,28.225,112.775,28.5,112.5 C28.775,112.225,28.775,111.55,28.5,111 C28.225,110.45,28.225,109.775,28.5,109.5 C28.775,109.225,29,105.85,29,102 C29,98.15,28.55,93.875,28,92.5 C27.45,91.125,27.45,90.225,28,90.5 C28.55,90.775,28.775,90.325,28.5,89.5 C28.225,88.675,28.225,85.75,28.5,83 C28.775,80.25,28.775,75.975,28.5,73.5 C28.225,71.025,28.225,66.975,28.5,64.5 C28.775,62.025,28.775,57.975,28.5,55.5 C28.225,53.025,28.225,48.525,28.5,45.5 C28.775,42.475,28.775,37.975,28.5,35.5 C28.225,33.025,28.225,30.325,28.5,29.5 C28.775,28.675,31.475,27.55,34.5,27 C37.525,26.45,40.675,26.225,41.5,26.5 M254,37 C254.55,37,257.025,37.225,259.5,37.5 C261.975,37.775,266.925,38,270.5,38 C274.95,38,276.842,38.631,276.5,40 C276.225,41.1,276.225,43.8,276.5,46 C276.783,48.267,276.133,50.217,275,50.5 C273.9,50.775,270.975,50.775,268.5,50.5 C265.662,50.185,266.216,50,270,50 L276,50 L275.5,44.5 L275,39 L264.5,39 L254,39 L253.5,42.5 L253,46 L252,43 C251.45,41.35,251.45,39.325,252,38.5 C252.55,37.675,253.45,37,254,37 M254.5,48 C255.875,48.55,258.35,49.225,260,49.5 C261.65,49.775,262.775,50.45,262.5,51 C262.225,51.55,259.975,51.325,257.5,50.5 C255.025,49.675,238.825,49,221.5,49 C204.175,49,187.975,48.775,185.5,48.5 C183.025,48.225,194.95,48,212,48 C229.05,48,245.025,47.775,247.5,47.5 C249.975,47.225,253.125,47.45,254.5,48 M240,57.5 C241.65,57.775,245.025,57.775,247.5,57.5 C249.975,57.225,251.775,57.45,251.5,58 C251.225,58.55,247.85,59,244,59 C240.15,59,237.225,59.675,237.5,60.5 C237.775,61.325,242.05,62,247,62 C251.95,62,255.325,62.45,254.5,63 C253.675,63.55,250.3,64,247,64 C243.7,64,239.875,63.55,238.5,63 C237.125,62.45,236.225,60.875,236.5,59.5 C236.82,57.9,238.081,57.18,240,57.5 M203,58 C214,58,225.025,58.225,227.5,58.5 C229.975,58.775,223,59,212,59 C201,59,189.975,58.775,187.5,58.5 C185.025,58.225,192,58,203,58 M130.5,59 C139.072,59,144.183,59.73,144.5,61 C144.803,62.211,148.155,63,153,63 L161,63 L161,89.5 L161,116 L153.5,116 C148.225,116,145.703,116.742,145,118.5 C144.277,120.306,141.503,121,135,121 C130.05,121,123.975,120.775,121.5,120.5 C119.025,120.225,123.075,120,130.5,120 C137.925,120,143.775,119.55,143.5,119 C143.225,118.45,143.225,117.775,143.5,117.5 C143.775,117.225,144.45,114.975,145,112.5 L146,108 L130.5,108 C118.47,108,114.888,108.56,114.5,110.5 C114.138,112.309,112.202,113,107.5,113 C103.925,113,98.975,112.775,96.5,112.5 C94.025,112.225,91.325,112.225,90.5,112.5 C89.675,112.775,88.1,112.775,87,112.5 C85.9,112.225,84.775,112.225,84.5,112.5 C84.225,112.775,83.775,112.775,83.5,112.5 C83.225,112.225,82.325,112.45,81.5,113 C80.675,113.55,79.1,113.775,78,113.5 C76.9,113.225,75.775,112.1,75.5,111 C75.21,109.842,76.263,108.79,78,108.5 C79.65,108.225,80.775,107.55,80.5,107 C80.225,106.45,80.225,105.325,80.5,104.5 C80.775,103.675,81.225,104.8,81.5,107 L82,111 L92.5,111 C98.275,111,102.775,110.55,102.5,110 C102.225,109.45,101.1,106.975,100,104.5 C98.9,102.025,97.775,97.3,97.5,94 C97.225,90.7,97.675,85.3,98.5,82 C99.325,78.7,101.125,74.425,102.5,72.5 C103.875,70.575,104.55,69.9,104,71 C103.45,72.1,102.325,74.575,101.5,76.5 C100.675,78.425,99.775,83.15,99.5,87 C99.225,90.85,99.675,95.125,100.5,96.5 C101.325,97.875,101.775,100.125,101.5,101.5 C101.148,103.262,101.59,103.705,103,103 C104.1,102.45,104.775,102.225,104.5,102.5 C104.225,102.775,103.775,103.9,103.5,105 C103.225,106.1,103.45,106.775,104,106.5 C104.55,106.225,104.775,106.225,104.5,106.5 C104.225,106.775,104.45,107.45,105,108 C105.55,108.55,105.775,109.225,105.5,109.5 C105.225,109.775,106.8,110.45,109,111 C111.2,111.55,112.775,111.55,112.5,111 C112.225,110.45,112.45,109.325,113,108.5 C113.55,107.675,113.55,106.55,113,106 C112.45,105.45,113.125,105.225,114.5,105.5 C115.875,105.775,119.025,106.225,121.5,106.5 C123.975,106.775,126.45,106.775,127,106.5 C127.55,106.225,128.45,106.225,129,106.5 C129.55,106.775,133.375,107,137.5,107 C141.625,107,145.45,107.675,146,108.5 C146.55,109.325,147.45,110.675,148,111.5 C148.55,112.325,148.55,112.775,148,112.5 C147.45,112.225,146.775,112.225,146.5,112.5 C146.225,112.775,149.15,113.45,153,114 C156.85,114.55,159.775,114.775,159.5,114.5 C159.225,114.225,159.225,111.975,159.5,109.5 C159.775,107.025,159.775,104.775,159.5,104.5 C159.225,104.225,159.225,103.325,159.5,102.5 C159.775,101.675,159.775,99.425,159.5,97.5 C159.225,95.575,159.225,93.775,159.5,93.5 C159.775,93.225,159.775,91.425,159.5,89.5 C159.225,87.575,159.225,84.2,159.5,82 C159.775,79.8,159.775,75.975,159.5,73.5 C159.225,71.025,159.225,67.875,159.5,66.5 C159.775,65.125,159.775,64.225,159.5,64.5 C159.225,64.775,158.1,64.775,157,64.5 C155.9,64.225,154.775,64.225,154.5,64.5 C154.225,64.775,153.1,64.775,152,64.5 C150.9,64.225,148.875,64.225,147.5,64.5 C146.016,64.797,144.797,63.984,144.5,62.5 C144.124,60.622,141.761,60,135,60 C130.05,60,123.975,59.775,121.5,59.5 C119.025,59.225,123.075,59,130.5,59 M237,65 C237.55,65.55,242.275,66.225,247.5,66.5 C252.725,66.775,256.775,67.225,256.5,67.5 C256.225,67.775,251.725,68.225,246.5,68.5 C241.275,68.775,237.225,69.45,237.5,70 C237.775,70.55,240.475,71,243.5,71 C246.525,71,251.025,71.225,253.5,71.5 L258,72 L252,72.5 C248.7,72.775,243.975,73.225,241.5,73.5 C239.025,73.775,237.675,74.45,238.5,75 C239.325,75.55,243.825,76,248.5,76 C254.336,76,255.59,76.313,252.5,77 C250.025,77.55,246.2,77.775,244,77.5 C241.8,77.225,239.325,77.45,238.5,78 C237.675,78.55,239.025,79.225,241.5,79.5 C243.975,79.775,248.025,80.225,250.5,80.5 C252.975,80.775,255.45,80.775,256,80.5 C256.55,80.225,256.775,80.45,256.5,81 C256.225,81.55,251.725,82.225,246.5,82.5 C241.275,82.775,237.225,83.45,237.5,84 C237.775,84.55,242.275,85,247.5,85 C252.725,85,255.65,85.45,254,86 C252.35,86.55,248.525,87,245.5,87 C242.475,87,239.325,87.45,238.5,88 C237.675,88.55,241.5,89.225,247,89.5 C252.5,89.775,256.775,90.225,256.5,90.5 C256.225,90.775,251.725,91.225,246.5,91.5 C241.275,91.775,237.45,92.45,238,93 C238.55,93.55,243.275,94.225,248.5,94.5 C253.725,94.775,257.55,95.225,257,95.5 C256.45,95.775,251.725,96.225,246.5,96.5 C241.275,96.775,237.225,97.45,237.5,98 C237.775,98.55,239.575,98.775,241.5,98.5 C243.425,98.225,245.225,98.225,245.5,98.5 C245.775,98.775,246.225,98.775,246.5,98.5 C246.775,98.225,249.025,98.225,251.5,98.5 L256,99 L252.5,99.5 C250.575,99.775,246.975,100.225,244.5,100.5 C242.025,100.775,239.55,100.775,239,100.5 C238.45,100.225,237.775,100.9,237.5,102 C237.165,103.342,238.152,103.835,240.5,103.5 C242.425,103.225,246.025,103.225,248.5,103.5 C250.975,103.775,253.9,103.775,255,103.5 C256.1,103.225,256.775,103.45,256.5,104 C256.225,104.55,252.175,105,247.5,105 C242.825,105,238.775,105.675,238.5,106.5 C238.225,107.325,242.5,108,248,108 C253.5,108,257.55,108.45,257,109 C256.45,109.55,251.725,110,246.5,110 C241.275,110,237.225,110.45,237.5,111 C237.775,111.55,242.5,112,248,112 C253.5,112,257.55,112.45,257,113 C256.45,113.55,251.725,114.225,246.5,114.5 C241.275,114.775,237.225,115.45,237.5,116 C237.775,116.55,242.275,117,247.5,117 C252.725,117,257.225,117.45,257.5,118 C257.775,118.55,253.95,119,249,119 C244.05,119,239.325,119.45,238.5,120 C237.675,120.55,239.25,121.225,242,121.5 C244.75,121.775,249.025,121.775,251.5,121.5 C253.975,121.225,256.45,121.225,257,121.5 C257.55,121.775,257.55,122.45,257,123 C256.45,123.55,251.725,124,246.5,124 C241.275,124,237.45,124.675,238,125.5 C238.55,126.325,238.55,126.775,238,126.5 C237.45,126.225,236.775,124.425,236.5,122.5 C236.225,120.575,235.55,118.325,235,117.5 C234.45,116.675,234.45,115.775,235,115.5 C235.55,115.225,235.775,114.1,235.5,113 C235.225,111.9,234.775,110.325,234.5,109.5 C234.225,108.675,234.45,108.225,235,108.5 C235.55,108.775,236,105.85,236,102 C236,98.15,236.225,92.975,236.5,90.5 C236.775,88.025,236.775,85.775,236.5,85.5 C236.225,85.225,236,80.275,236,74.5 C236,68.725,236.45,64.45,237,65 M360.5,64 C355.825,64,349.975,64.225,347.5,64.5 C345.025,64.775,340.075,65.225,336.5,65.5 L330,66 L329.5,69.5 L329,73 L339.5,74 C345.275,74.55,352.25,75.9,355,77 C357.75,78.1,361.125,80.125,362.5,81.5 C363.875,82.875,366.125,84.225,367.5,84.5 C368.875,84.775,370.45,85.45,371,86 C371.55,86.55,370.2,87.225,368,87.5 C365.8,87.775,364.225,88.675,364.5,89.5 C364.775,90.325,367.025,91.225,369.5,91.5 C371.975,91.775,373.55,92.225,373,92.5 C372.45,92.775,371.325,92.775,370.5,92.5 C369.675,92.225,368.775,92.225,368.5,92.5 C368.225,92.775,367.1,92.775,366,92.5 C364.9,92.225,364.225,92.45,364.5,93 C364.775,93.55,365.45,93.775,366,93.5 C366.55,93.225,367.225,93.45,367.5,94 C367.775,94.55,367.1,95.225,366,95.5 C364.9,95.775,363.55,96.675,363,97.5 C362.45,98.325,359.3,100.125,356,101.5 C352.7,102.875,345.725,104.45,340.5,105 C335.275,105.55,330.55,106.225,330,106.5 C329.45,106.775,329.225,108.35,329.5,110 L330,113 L343.5,114 C350.925,114.55,359.7,115.225,363,115.5 C366.3,115.775,369.45,115.325,370,114.5 C370.55,113.675,371.225,108.95,371.5,104 C371.868,97.373,372.659,94.868,374.5,94.5 C375.875,94.225,376.775,93.55,376.5,93 C376.225,92.45,376.45,91.325,377,90.5 C377.55,89.675,377.325,87.875,376.5,86.5 C375.675,85.125,374.325,83.775,373.5,83.5 C372.675,83.225,372,79.625,372,75.5 C372,71.375,371.325,67.1,370.5,66 C369.675,64.9,365.175,64,360.5,64 M273.5,66 C274.325,66.55,275,69.7,275,73 C275,76.3,274.775,81.025,274.5,83.5 C274.225,85.975,274.225,88.675,274.5,89.5 C274.775,90.325,274.775,92.125,274.5,93.5 C274.225,94.875,274.225,96.225,274.5,96.5 C274.775,96.775,274.775,97.225,274.5,97.5 C274.225,97.775,274.225,99.125,274.5,100.5 C274.775,101.875,274.55,105.25,274,108 C273.314,111.432,273,110.02,273,103.5 C273,98.275,272.775,87.475,272.5,79.5 C272.225,71.525,272.675,65.45,273.5,66 M78.5,66.5 C79.875,66.775,84.15,66.775,88,66.5 C91.85,66.225,97.025,66.225,99.5,66.5 C101.975,66.775,106.025,66.775,108.5,66.5 C111.69,66.146,113.146,66.728,113.5,68.5 C113.881,70.407,116.61,71,125,71 C131.05,71,134.2,71.45,132,72 C129.8,72.55,124.85,73,121,73 C115.883,73,113.865,72.327,113.5,70.5 C113.114,68.569,110.497,68.114,102,68.5 C95.95,68.775,88.975,69.225,86.5,69.5 C84.025,69.775,80.65,70.225,79,70.5 C77.35,70.775,76.225,71.45,76.5,72 C76.775,72.55,76.55,73.9,76,75 C75.45,76.1,75.225,74.525,75.5,71.5 C75.889,67.221,76.555,66.111,78.5,66.5 M78.5,83 L82,83 L82,92.5 C82,97.725,81.775,101.1,81.5,100 C81.225,98.9,79.875,97.775,78.5,97.5 C77.125,97.225,76.225,97.675,76.5,98.5 C76.775,99.325,76.55,100.675,76,101.5 C75.45,102.325,75,98.5,75,93 L75,83 L78.5,83 M339.5,83.5 C339.775,83.775,339.325,84.225,338.5,84.5 C337.675,84.775,334.975,85.225,332.5,85.5 C330.025,85.775,319.45,86,309,86 C298.55,86,290.9,86.45,292,87 C293.1,87.55,294.45,87.775,295,87.5 C295.55,87.225,297.8,87.225,300,87.5 C302.2,87.775,304.9,87.775,306,87.5 C307.1,87.225,308.9,87.225,310,87.5 C311.1,87.775,318.075,88,325.5,88 C332.925,88,339.225,88.45,339.5,89 C339.775,89.55,336.4,90,332,90 C327.6,90,321.975,89.775,319.5,89.5 C317.025,89.225,309.375,89,302.5,89 C294.602,89,289.816,88.264,289.5,87 C289.157,85.629,291.2,85,296,85 C299.85,85,305.025,84.775,307.5,84.5 C309.975,84.225,316.05,84,321,84 C325.95,84,332.025,83.775,334.5,83.5 C336.975,83.225,339.225,83.225,339.5,83.5 M276,130 C276.55,130.55,276.775,133.025,276.5,135.5 C276.225,137.975,275.55,140.675,275,141.5 C274.45,142.325,271.975,142.775,269.5,142.5 C267.025,142.225,262.975,142.225,260.5,142.5 C258.025,142.775,255.325,142.775,254.5,142.5 C253.675,142.225,252.775,139.975,252.5,137.5 C252.225,135.025,252.225,134.8,252.5,137 L253,141 L258.5,141 C261.525,141,266.025,141.225,268.5,141.5 C270.975,141.775,273.45,141.775,274,141.5 C274.55,141.225,275,138.3,275,135 C275,131.7,275.45,129.45,276,130 M277.5,141 C277.775,142.1,276.2,144.575,274,146.5 C270.975,149.147,267.44,150.122,259.5,150.5 C253.725,150.775,246.975,151.225,244.5,151.5 C242.025,151.775,237.75,152,235,152 C232.25,152,227.975,152.225,225.5,152.5 C223.025,152.775,218.3,153,215,153 C211.7,153,206.975,153.225,204.5,153.5 C202.025,153.775,196.175,154,191.5,154 C186.825,154,181.425,153.325,179.5,152.5 L176,151 L179.5,152 C181.425,152.55,183.225,152.775,183.5,152.5 C183.775,152.225,184.675,152.225,185.5,152.5 C186.325,152.775,187.675,152.775,188.5,152.5 C189.325,152.225,193.15,152,197,152 C200.85,152,206.025,151.775,208.5,151.5 C210.975,151.225,215.25,151,218,151 C220.75,151,225.025,150.775,227.5,150.5 C229.975,150.225,236.275,149.775,241.5,149.5 C246.725,149.225,253.025,148.775,255.5,148.5 C257.975,148.225,262.25,148,265,148 C267.75,148,271.35,147.1,273,146 C274.65,144.9,276.225,142.875,276.5,141.5 C276.835,139.823,277.165,139.658,277.5,141 " fill="rgb(0, 0, 0)" stroke="none" fill-rule="evenodd"></path></svg>